<?xml version="1.0" encoding="UTF-8"?><svg id="a" xmlns="http://www.w3.org/2000/svg" width="6.22in" height="3in" viewBox="0 0 448.19 216.09"><defs><style>.b,.c,.d{fill:none;}.e{fill:#bccbce;}.f{fill:#231f20;}.c{stroke:#666766;stroke-width:1.54px;}.c,.d{stroke-linecap:round;stroke-miterlimit:10;}.g{fill-rule:evenodd;}.g,.h{fill:#c2adbc;}.i{fill:#cd944e;}.d{stroke:#231f20;}.j{fill:#fff;}.k{fill:#666;}.l{fill:#dccfc2;}</style></defs><path class="i" d="M103.48,104.66c-.06-2.09-1.91-3.74-4.14-3.68s-3.99,1.8-3.93,3.9c.04,1.64,1.2,3.01,2.77,3.49l.17,6.44c.02.75.65,1.34,1.4,1.32s1.34-.65,1.32-1.4l-.17-6.44c1.54-.57,2.62-1.99,2.58-3.64Z"/><path class="i" d="M131.25,104.66c-.06-2.09-1.91-3.74-4.14-3.68s-3.99,1.8-3.93,3.9c.04,1.64,1.2,3.01,2.77,3.49l.17,6.44c.02.75.65,1.34,1.4,1.32s1.34-.65,1.32-1.4l-.17-6.44c1.54-.57,2.62-1.99,2.58-3.64Z"/><path class="i" d="M227.87,104.15c-.06-2.09-1.91-3.74-4.14-3.68s-3.99,1.8-3.93,3.9c.04,1.64,1.2,3.01,2.77,3.49l.17,6.44c.02.75.65,1.34,1.4,1.32s1.34-.65,1.32-1.4l-.17-6.44c1.54-.57,2.62-1.99,2.58-3.64Z"/><path class="i" d="M412.87,102.09c-.06-2.09-1.91-3.74-4.14-3.68-2.23.06-3.99,1.8-3.93,3.9.04,1.64,1.2,3.01,2.77,3.49l.17,6.44c.02.75.65,1.34,1.4,1.32s1.34-.65,1.32-1.4l-.17-6.44c1.54-.57,2.62-1.99,2.58-3.64Z"/><path class="h" d="M310.06,104.15c-.06-2.09-1.91-3.74-4.14-3.68s-3.99,1.8-3.93,3.9c.04,1.64,1.2,3.01,2.77,3.49l.17,6.44c.02.75.65,1.34,1.4,1.32s1.34-.65,1.32-1.4l-.17-6.44c1.54-.57,2.62-1.99,2.58-3.64Z"/><path class="h" d="M322.67,104.15c-.06-2.09-1.91-3.74-4.14-3.68s-3.99,1.8-3.93,3.9c.04,1.64,1.2,3.01,2.77,3.49l.17,6.44c.02.75.65,1.34,1.4,1.32s1.34-.65,1.32-1.4l-.17-6.44c1.54-.57,2.62-1.99,2.58-3.64Z"/><path class="h" d="M336.83,104.15c-.06-2.09-1.91-3.74-4.14-3.68s-3.99,1.8-3.93,3.9c.04,1.64,1.2,3.01,2.77,3.49l.17,6.44c.02.75.65,1.34,1.4,1.32s1.34-.65,1.32-1.4l-.17-6.44c1.54-.57,2.62-1.99,2.58-3.64Z"/><path class="h" d="M350.06,104.15c-.06-2.09-1.91-3.74-4.14-3.68s-3.99,1.8-3.93,3.9c.04,1.64,1.2,3.01,2.77,3.49l.17,6.44c.02.75.65,1.34,1.4,1.32s1.34-.65,1.32-1.4l-.17-6.44c1.54-.57,2.62-1.99,2.58-3.64Z"/><path class="h" d="M399,102.09c-.06-2.09-1.91-3.74-4.14-3.68-2.23.06-3.99,1.8-3.93,3.9.04,1.64,1.2,3.01,2.77,3.49l.17,6.44c.02.75.65,1.34,1.4,1.32s1.34-.65,1.32-1.4l-.17-6.44c1.54-.57,2.62-1.99,2.58-3.64Z"/><path class="h" d="M294.81,104.15c-.06-2.09-1.91-3.74-4.14-3.68s-3.99,1.8-3.93,3.9c.04,1.64,1.2,3.01,2.77,3.49l.17,6.44c.02.75.65,1.34,1.4,1.32s1.34-.65,1.32-1.4l-.17-6.44c1.54-.57,2.62-1.99,2.58-3.64Z"/><path class="h" d="M117.06,104.66c-.06-2.09-1.91-3.74-4.14-3.68s-3.99,1.8-3.93,3.9c.04,1.64,1.2,3.01,2.77,3.49l.17,6.44c.02.75.65,1.34,1.4,1.32s1.34-.65,1.32-1.4l-.17-6.44c1.54-.57,2.62-1.99,2.58-3.64Z"/><path class="h" d="M143.89,104.66c-.06-2.09-1.91-3.74-4.14-3.68s-3.99,1.8-3.93,3.9c.04,1.64,1.2,3.01,2.77,3.49l.17,6.44c.02.75.65,1.34,1.4,1.32s1.34-.65,1.32-1.4l-.17-6.44c1.54-.57,2.62-1.99,2.58-3.64Z"/><path class="h" d="M195.86,104c-.06-2.09-1.91-3.74-4.14-3.68s-3.99,1.8-3.93,3.9c.04,1.64,1.2,3.01,2.77,3.49l.17,6.44c.02.75.65,1.34,1.4,1.32s1.34-.65,1.32-1.4l-.17-6.44c1.54-.57,2.62-1.99,2.58-3.64Z"/><path class="h" d="M243.87,104.15c-.06-2.09-1.91-3.74-4.14-3.68s-3.99,1.8-3.93,3.9c.04,1.64,1.2,3.01,2.77,3.49l.17,6.44c.02.75.65,1.34,1.4,1.32s1.34-.65,1.32-1.4l-.17-6.44c1.54-.57,2.62-1.99,2.58-3.64Z"/><path class="h" d="M211.16,104.15c-.06-2.09-1.91-3.74-4.14-3.68s-3.99,1.8-3.93,3.9c.04,1.64,1.2,3.01,2.77,3.49l.17,6.44c.02.75.65,1.34,1.4,1.32s1.34-.65,1.32-1.4l-.17-6.44c1.54-.57,2.62-1.99,2.58-3.64Z"/><path class="c" d="M373.46,113.44l37.49.11,4.49-.07c2.78-.04,5.45-.54,7.56-1.42"/><path class="l" d="M393.47,86.25s.68-4.14-3-6.46l-17.95-9.11-19.91,38.32,18.48,9.32s2.58,1.76,6.4-1.52c0,0,14.83-16.68,15.99-30.55Z"/><ellipse class="e" cx="362.13" cy="89.74" rx="21.7" ry="7.49" transform="translate(117.55 371.48) rotate(-62.96)"/><path class="c" d="M277.45,114.7l67.15.39,8.05-.26c4.97-.16,9.77-1.97,13.55-5.2,8.06-6.9,13.57-16.64,15.88-33.98"/><path class="c" d="M368.23,116.73c10.25-5.16,18.37-16.23,21.18-37.3"/><path class="l" d="M292.32,87.3s.68-4.14-3-6.46l-17.95-9.11-19.91,38.32,18.48,9.32s2.58,1.76,6.4-1.52c0,0,14.83-16.68,15.99-30.55Z"/><ellipse class="e" cx="260.99" cy="90.79" rx="21.7" ry="7.49" transform="translate(61.46 281.96) rotate(-62.96)"/><path class="c" d="M176.3,115.75l67.15.39,8.05-.26c4.97-.16,9.77-1.97,13.55-5.2,8.06-6.9,13.57-16.64,15.88-33.98"/><path class="c" d="M267.08,117.77c10.25-5.16,18.37-16.23,21.18-37.3"/><path class="l" d="M190.35,87.94s.68-4.14-3-6.46l-17.95-9.11-19.91,38.32,18.48,9.32s2.58,1.76,6.4-1.52c0,0,14.83-16.68,15.99-30.55Z"/><ellipse class="e" cx="159.02" cy="91.43" rx="21.7" ry="7.49" transform="translate(5.28 191.49) rotate(-62.96)"/><path class="i" d="M161.21,95.66c-1.86-.96-4.2-.13-5.22,1.85s-.34,4.37,1.52,5.32c1.46.75,3.21.4,4.4-.75l5.73,2.95c.67.34,1.49.08,1.83-.59s.08-1.49-.59-1.83l-5.73-2.95c.25-1.63-.48-3.26-1.94-4.01Z"/><path class="i" d="M371.17,78.89c-1.86-.96-4.2-.13-5.22,1.85s-.34,4.37,1.52,5.32c1.46.75,3.21.4,4.4-.75l5.73,2.95c.67.34,1.49.08,1.83-.59s.08-1.49-.59-1.83l-5.73-2.95c.25-1.63-.48-3.26-1.94-4.01Z"/><path class="c" d="M74.33,116.39l67.15.39,8.05-.26c4.97-.16,9.77-1.97,13.55-5.2,8.06-6.9,13.57-16.64,15.88-33.98"/><path class="c" d="M165.11,118.42c10.25-5.16,18.37-16.23,21.18-37.3"/><path class="i" d="M175.95,82.03c-1.86-.96-4.2-.13-5.22,1.85-1.02,1.98-.34,4.37,1.52,5.32,1.46.75,3.21.4,4.4-.75l5.73,2.95c.67.34,1.49.08,1.83-.59s.08-1.49-.59-1.83l-5.73-2.95c.25-1.63-.48-3.26-1.94-4.01Z"/><path class="h" d="M38.49,106.71c-.06-2.09-1.91-3.74-4.14-3.68s-3.99,1.8-3.93,3.9c.04,1.64,1.2,3.01,2.77,3.49l.17,6.44c.02.75.65,1.34,1.4,1.32s1.34-.65,1.32-1.4l-.17-6.44c1.54-.57,2.62-1.99,2.58-3.64Z"/><path class="h" d="M88.12,104.67c-.06-2.09-1.91-3.74-4.14-3.68s-3.99,1.8-3.93,3.9c.04,1.64,1.2,3.01,2.77,3.49l.17,6.44c.02.75.65,1.34,1.4,1.32s1.34-.65,1.32-1.4l-.17-6.44c1.54-.57,2.62-1.99,2.58-3.64Z"/><path class="l" d="M89.66,87.49s.68-4.14-3-6.46l-17.95-9.11-19.91,38.32,18.48,9.32s2.58,1.76,6.4-1.52c0,0,14.83-16.68,15.99-30.55Z"/><ellipse class="e" cx="58.32" cy="90.98" rx="21.7" ry="7.49" transform="translate(-49.22 101.56) rotate(-62.96)"/><path class="c" d="M28.41,117.69s43.2,9.16,49.86-40.81"/><path class="i" d="M75.74,82.08c-1.86-.96-4.2-.13-5.22,1.85s-.34,4.37,1.52,5.32c1.46.75,3.21.4,4.4-.75l5.73,2.95c.67.34,1.49.08,1.83-.59.34-.67.08-1.49-.59-1.83l-5.73-2.95c.25-1.63-.48-3.26-1.94-4.01Z"/><path class="c" d="M62.88,117.45c10.25-5.16,19.91-15.72,22.72-36.79"/><rect class="k" x="28.19" y="156.23" width="400.08" height="8.79"/><rect class="h" x="33.85" y="156.23" width="3.14" height="8.79"/><rect class="h" x="111.29" y="156.23" width="3.14" height="8.79"/><rect class="h" x="138.77" y="156.23" width="3.14" height="8.79"/><rect class="i" x="166.3" y="156.23" width="3.14" height="8.79"/><rect class="i" x="179.4" y="156.23" width="3.14" height="8.79"/><rect class="h" x="207.21" y="156.23" width="3.14" height="8.79"/><rect class="i" x="225.45" y="156.23" width="3.14" height="8.79"/><rect class="h" x="191.01" y="156.23" width="3.14" height="8.79"/><rect class="h" x="242.32" y="156.23" width="3.14" height="8.79"/><rect class="h" x="291.04" y="156.23" width="3.14" height="8.79"/><rect class="h" x="307.52" y="156.23" width="3.14" height="8.79"/><rect class="h" x="319.66" y="156.23" width="3.14" height="8.79"/><rect class="h" x="334.11" y="156.23" width="3.14" height="8.79"/><rect class="h" x="348.4" y="156.23" width="3.14" height="8.79"/><rect class="i" x="381.39" y="156.23" width="3.14" height="8.79"/><rect class="h" x="396.4" y="156.23" width="3.14" height="8.79"/><rect class="i" x="411.17" y="156.23" width="3.14" height="8.79"/><rect class="i" x="125.69" y="156.23" width="3.14" height="8.79"/><rect class="i" x="73.67" y="156.23" width="3.14" height="8.79"/><rect class="h" x="81.57" y="156.23" width="3.14" height="8.79"/><rect class="i" x="97.66" y="156.23" width="3.14" height="8.79"/><line class="d" x1="232.67" y1="126.65" x2="232.67" y2="146.2"/><polygon class="f" points="229.68 145.33 232.67 150.51 235.67 145.33 229.68 145.33"/><path class="f" d="M48.89,42.95h-3.09l-.03,1.2c.17-.06.4-.09.69-.09.4,0,.76.06,1.09.18s.61.29.85.51.42.49.56.81.2.68.2,1.07c0,.44-.08.83-.23,1.18-.15.34-.36.64-.62.87-.26.24-.58.42-.94.54-.36.12-.76.19-1.18.19-.67,0-1.24-.17-1.69-.5-.46-.33-.77-.83-.94-1.5l1.73-.4c.04.28.16.5.35.68.19.17.43.26.71.26.35,0,.63-.11.84-.33.21-.22.31-.5.31-.84,0-.26-.05-.47-.16-.63-.11-.17-.25-.3-.42-.4-.17-.1-.37-.17-.58-.2-.21-.04-.42-.06-.64-.06-.27,0-.54.03-.82.08-.28.05-.54.12-.8.21l.09-4.3h4.71v1.45Z"/><path class="f" d="M50.29,43.94h1.58v.73h.02c.05-.1.12-.21.22-.31.09-.1.21-.19.34-.28.13-.08.28-.15.45-.2.17-.05.35-.08.55-.08.37,0,.71.08,1,.23s.51.4.65.73c.19-.34.42-.59.69-.74s.61-.22,1-.22c.36,0,.66.06.91.18.25.12.44.29.58.5.14.21.25.46.31.74.06.28.09.58.09.91v3.16h-1.65v-3.11c0-.25-.05-.46-.16-.64-.11-.18-.3-.27-.57-.27-.19,0-.35.03-.48.09-.13.06-.23.15-.31.26-.08.11-.13.24-.17.38s-.05.3-.05.46v2.83h-1.65v-2.83c0-.09,0-.21-.01-.35,0-.14-.03-.27-.08-.4-.04-.12-.12-.23-.21-.32-.1-.09-.24-.13-.43-.13-.21,0-.38.04-.52.12-.13.08-.23.18-.3.31-.07.13-.12.27-.14.43-.02.16-.03.33-.03.51v2.66h-1.65v-5.35Z"/><path class="f" d="M65.17,43.52c-.17-.21-.38-.36-.62-.47-.25-.11-.53-.17-.85-.17s-.62.06-.9.19-.51.3-.71.52c-.2.22-.36.49-.47.8-.11.31-.17.64-.17,1s.06.7.17,1.01c.11.3.27.57.47.79.2.22.43.4.7.52.27.12.55.19.86.19.35,0,.66-.07.93-.22.27-.15.5-.35.67-.62l1.43,1.07c-.33.46-.75.8-1.25,1.02-.51.22-1.03.33-1.56.33-.61,0-1.17-.1-1.68-.29-.51-.19-.96-.46-1.33-.82s-.67-.79-.88-1.29-.31-1.07-.31-1.69.1-1.19.31-1.69.5-.94.88-1.29c.37-.36.82-.63,1.33-.82.51-.19,1.07-.29,1.68-.29.22,0,.45.02.69.06.24.04.47.1.7.19.23.09.45.21.67.35.21.15.4.33.57.54l-1.32,1.08Z"/><path class="f" d="M73.74,41.69c-.29.37-.54.73-.77,1.08s-.42.69-.59,1.05c-.17.36-.3.72-.41,1.11-.11.38-.2.79-.26,1.23-.12.81-.11,1.59.02,2.34.13.76.38,1.46.76,2.1l-.71.44c-.42-.69-.71-1.45-.87-2.28-.16-.83-.18-1.7-.05-2.61.12-.84.37-1.69.76-2.53.39-.84.9-1.63,1.52-2.35l.6.42Z"/><path class="f" d="M74.73,47.04c-.03.23,0,.43.07.62.07.19.18.35.33.48.14.13.32.23.52.31.2.07.42.11.65.11.31,0,.59-.07.83-.21.25-.14.48-.33.71-.57l.66.57c-.65.71-1.46,1.07-2.45,1.07-.41,0-.77-.07-1.08-.21-.31-.14-.57-.33-.76-.58-.2-.25-.34-.54-.42-.87-.08-.33-.09-.69-.03-1.08.05-.39.17-.75.35-1.08s.41-.62.69-.87c.28-.25.59-.44.93-.58.35-.14.72-.21,1.11-.21.46,0,.84.08,1.14.24.3.16.53.37.7.63.17.26.27.55.32.88.04.33.04.66,0,1l-.05.35h-4.19ZM77.98,46.25c.02-.22.01-.42-.02-.6-.04-.18-.11-.34-.21-.48s-.24-.24-.42-.32c-.18-.08-.39-.12-.64-.12s-.47.05-.69.14c-.21.09-.4.21-.57.36-.17.15-.3.31-.4.49s-.17.36-.19.53h3.15Z"/><path class="f" d="M80.52,44.07h.99l-.11.8h.02c.17-.28.42-.5.75-.68.33-.17.7-.26,1.1-.26.25,0,.48.04.7.12.22.08.4.2.55.36s.26.37.33.62c.07.25.07.55.02.9l-.46,3.36h-.99l.43-3.08c.03-.24.02-.45-.02-.62-.04-.17-.11-.31-.2-.42s-.21-.18-.35-.23-.29-.07-.44-.07c-.21,0-.4.03-.59.1-.19.07-.36.17-.51.31-.15.14-.28.33-.38.54s-.18.48-.22.78l-.37,2.68h-.99l.73-5.21Z"/><path class="f" d="M91.14,49.28h-.99l.1-.75h-.02c-.24.28-.53.5-.88.65-.35.15-.7.23-1.06.23-.4,0-.76-.07-1.07-.21-.31-.14-.56-.33-.75-.58-.19-.25-.33-.54-.41-.87-.08-.33-.09-.69-.03-1.08.05-.39.17-.75.34-1.08s.4-.62.66-.87c.26-.25.57-.44.91-.58.34-.14.72-.21,1.12-.21.37,0,.71.08,1.02.24.3.16.53.37.68.64h.02l.54-3.85h.99l-1.17,8.32ZM88.54,48.49c.26,0,.51-.05.73-.14s.42-.22.59-.37c.17-.16.31-.35.42-.57.11-.22.19-.47.23-.73.04-.26.03-.51-.02-.73-.05-.22-.14-.41-.26-.57-.13-.16-.29-.28-.49-.37s-.43-.14-.69-.14-.51.05-.73.14-.42.22-.59.37c-.17.16-.31.35-.42.57-.11.22-.18.47-.22.73-.04.26-.03.51.02.73.05.22.13.42.26.57.12.16.29.28.49.37.2.09.43.14.7.14Z"/><path class="f" d="M92.74,46.67c.05-.38.17-.74.36-1.07.19-.33.43-.62.71-.87s.61-.45.96-.59c.36-.14.73-.21,1.12-.21s.74.07,1.06.21c.32.14.58.34.8.59.22.25.37.54.47.87.1.33.12.69.07,1.07-.06.38-.18.74-.37,1.07-.19.33-.42.62-.71.87-.29.25-.61.44-.96.58-.36.14-.73.21-1.12.21s-.74-.07-1.06-.21c-.32-.14-.58-.34-.8-.58-.21-.25-.37-.54-.47-.87-.1-.33-.12-.69-.06-1.07ZM93.8,46.67c-.04.26-.03.51.02.73.05.22.13.42.26.57.12.16.29.28.49.37.2.09.43.14.7.14s.51-.05.73-.14.42-.22.59-.37c.17-.16.31-.35.42-.57.11-.22.19-.47.23-.73.04-.26.03-.51-.02-.73-.05-.22-.14-.41-.26-.57-.13-.16-.29-.28-.49-.37s-.43-.14-.69-.14-.51.05-.73.14-.42.22-.59.37c-.17.16-.31.35-.42.57-.11.22-.18.47-.22.73Z"/><path class="f" d="M104.4,49.24c-.06.4-.18.76-.36,1.08-.18.33-.41.61-.69.85-.28.24-.61.42-.98.56-.37.13-.77.2-1.2.2-.5,0-.95-.07-1.34-.21-.4-.14-.76-.38-1.08-.73l.78-.84c.22.28.47.49.75.63.28.14.61.21,1,.21s.68-.05.94-.16.47-.24.63-.41c.16-.17.29-.36.38-.58.09-.22.15-.43.19-.65l.1-.77h-.03c-.23.32-.52.55-.87.7s-.7.23-1.06.23c-.38,0-.73-.07-1.03-.2-.31-.14-.56-.32-.76-.56-.2-.24-.35-.52-.43-.85-.09-.33-.1-.68-.04-1.06.05-.38.16-.74.34-1.07.17-.33.39-.62.65-.87s.57-.44.92-.58c.35-.14.72-.21,1.13-.21.35,0,.68.08,1,.23.31.15.54.37.7.65h.02l.1-.75h.99l-.72,5.17ZM102.3,44.86c-.26,0-.51.05-.73.14s-.42.22-.59.37c-.17.16-.31.35-.42.57-.11.22-.18.47-.22.73-.08.53.01.95.27,1.27.26.32.66.48,1.19.48s.97-.16,1.32-.48c.35-.32.57-.74.65-1.27.04-.26.03-.51-.02-.73-.05-.22-.14-.41-.26-.57-.13-.16-.29-.28-.49-.37-.2-.09-.43-.14-.69-.14Z"/><path class="f" d="M106.93,47.04c-.03.23,0,.43.07.62.07.19.18.35.33.48.14.13.32.23.52.31.2.07.42.11.65.11.31,0,.59-.07.83-.21.25-.14.48-.33.71-.57l.66.57c-.65.71-1.46,1.07-2.45,1.07-.41,0-.77-.07-1.08-.21-.31-.14-.57-.33-.76-.58-.2-.25-.34-.54-.42-.87-.08-.33-.09-.69-.03-1.08.05-.39.17-.75.35-1.08.18-.33.41-.62.69-.87.28-.25.59-.44.94-.58.35-.14.72-.21,1.11-.21.46,0,.84.08,1.14.24.3.16.53.37.7.63.17.26.28.55.32.88.04.33.04.66,0,1l-.06.35h-4.19ZM110.19,46.25c.02-.22.01-.42-.02-.6-.04-.18-.11-.34-.21-.48s-.24-.24-.42-.32c-.18-.08-.39-.12-.64-.12s-.47.05-.69.14c-.21.09-.4.21-.57.36-.17.15-.3.31-.4.49s-.17.36-.19.53h3.15Z"/><path class="f" d="M112.73,44.07h.99l-.11.8h.02c.17-.28.42-.5.75-.68.33-.17.7-.26,1.1-.26.25,0,.48.04.7.12s.41.2.56.36.26.37.32.62c.07.25.07.55.02.9l-.46,3.36h-.99l.43-3.08c.03-.24.02-.45-.02-.62-.04-.17-.11-.31-.2-.42s-.21-.18-.35-.23c-.14-.05-.29-.07-.44-.07-.21,0-.4.03-.59.1-.19.07-.36.17-.51.31-.15.14-.28.33-.38.54-.1.22-.18.48-.22.78l-.37,2.68h-.99l.73-5.21Z"/><path class="f" d="M118.23,46.67c.05-.38.17-.74.36-1.07s.43-.62.71-.87.61-.45.96-.59c.36-.14.73-.21,1.12-.21s.74.07,1.06.21c.32.14.58.34.8.59.22.25.37.54.47.87.09.33.12.69.07,1.07-.06.38-.18.74-.37,1.07-.19.33-.42.62-.71.87-.29.25-.61.44-.96.58-.36.14-.73.21-1.12.21s-.74-.07-1.06-.21c-.32-.14-.58-.34-.8-.58-.21-.25-.37-.54-.47-.87-.1-.33-.12-.69-.06-1.07ZM119.29,46.67c-.04.26-.03.51.02.73.05.22.13.42.26.57.12.16.29.28.49.37.2.09.43.14.7.14s.51-.05.73-.14.42-.22.59-.37c.17-.16.31-.35.42-.57.11-.22.19-.47.23-.73.04-.26.03-.51-.02-.73-.05-.22-.14-.41-.26-.57-.13-.16-.29-.28-.49-.37-.2-.09-.43-.14-.69-.14s-.51.05-.73.14-.42.22-.59.37c-.17.16-.31.35-.42.57-.11.22-.18.47-.22.73Z"/><path class="f" d="M129.28,49.28h-.99l.11-.8h-.02c-.17.28-.42.5-.75.68-.33.17-.7.26-1.1.26-.26,0-.49-.04-.71-.12-.22-.08-.4-.2-.55-.36s-.26-.37-.32-.62c-.07-.25-.08-.55-.03-.9l.47-3.35h.99l-.43,3.08c-.04.24-.04.45,0,.62.04.17.11.31.2.42.09.11.21.18.35.23s.29.07.44.07c.41,0,.77-.14,1.09-.41.32-.28.52-.72.6-1.33l.37-2.68h.99l-.73,5.21Z"/><path class="f" d="M134.08,45.38c-.1-.15-.22-.27-.38-.37-.16-.1-.36-.15-.61-.15-.23,0-.45.05-.63.15-.19.1-.29.24-.31.43-.02.15,0,.28.09.37.08.1.19.17.32.23.13.06.27.1.41.13.15.03.27.05.38.08.21.05.4.11.57.19.18.07.33.17.45.29s.21.26.26.43c.05.17.06.37.03.62-.04.29-.14.54-.29.75-.15.21-.34.38-.56.51s-.46.23-.72.29-.52.09-.78.09c-.43,0-.8-.07-1.11-.2-.3-.13-.56-.37-.78-.73l.83-.62c.14.16.3.3.49.43.18.12.42.19.71.19.26,0,.5-.05.74-.16.24-.11.37-.27.41-.5.02-.15,0-.27-.08-.36-.08-.09-.18-.17-.3-.22-.12-.06-.25-.1-.4-.13-.14-.03-.27-.06-.37-.08-.21-.05-.4-.11-.58-.18-.18-.07-.34-.15-.48-.26-.13-.11-.23-.25-.29-.42-.06-.17-.08-.38-.04-.63.04-.27.13-.51.27-.71.14-.2.32-.37.52-.5s.43-.23.68-.3.5-.1.74-.1c.35,0,.68.07.98.2.3.13.53.35.68.66l-.86.58Z"/><path class="f" d="M139.44,44.07h.92l-.11.81h.02c.04-.07.11-.17.21-.27.1-.11.23-.21.4-.31.16-.1.34-.18.54-.25.2-.07.42-.1.65-.1.75,0,1.25.32,1.48.97.22-.32.49-.56.82-.73.33-.16.65-.24.96-.24.4,0,.72.07.96.2.24.13.41.31.53.52.11.22.18.46.2.74.02.28,0,.56-.04.85l-.41,3.04h-.99l.41-2.9c.03-.2.04-.39.04-.57,0-.18-.04-.34-.09-.48s-.16-.25-.29-.34c-.14-.08-.32-.13-.57-.13-.48,0-.84.15-1.08.44-.25.29-.4.67-.47,1.13l-.4,2.85h-.99l.37-2.73c.04-.25.06-.48.06-.68,0-.21-.02-.38-.08-.53s-.15-.27-.28-.35c-.13-.08-.32-.13-.56-.13-.18,0-.35.04-.53.1-.18.07-.34.17-.48.31-.14.14-.27.32-.37.53-.1.22-.18.47-.22.76l-.37,2.71h-.99l.73-5.21Z"/><path class="f" d="M149.13,47.04c-.03.23,0,.43.07.62.07.19.18.35.33.48.14.13.32.23.52.31.2.07.42.11.65.11.31,0,.59-.07.83-.21.25-.14.48-.33.71-.57l.66.57c-.65.71-1.46,1.07-2.45,1.07-.41,0-.77-.07-1.08-.21-.31-.14-.57-.33-.76-.58-.2-.25-.34-.54-.42-.87-.08-.33-.09-.69-.03-1.08.05-.39.17-.75.35-1.08s.41-.62.69-.87c.28-.25.59-.44.93-.58.35-.14.72-.21,1.11-.21.46,0,.84.08,1.14.24.3.16.53.37.7.63.17.26.27.55.32.88.04.33.04.66,0,1l-.05.35h-4.19ZM152.39,46.25c.02-.22.01-.42-.02-.6-.04-.18-.11-.34-.21-.48s-.24-.24-.42-.32c-.18-.08-.39-.12-.64-.12s-.47.05-.69.14c-.21.09-.4.21-.57.36-.17.15-.3.31-.4.49s-.17.36-.19.53h3.15Z"/><path class="f" d="M157.61,44.93h-1.42l-.32,2.37c-.02.15-.04.29-.05.43-.01.14,0,.27.03.38.03.11.09.21.18.28s.23.1.42.1c.12,0,.24-.01.37-.03.13-.02.25-.06.36-.12l-.13.9c-.07.04-.14.07-.23.09-.08.02-.17.04-.25.05-.08.01-.17.02-.24.03-.08,0-.14.01-.19.01-.38,0-.67-.05-.87-.16s-.33-.24-.41-.41c-.08-.17-.11-.36-.1-.57s.03-.42.06-.63l.38-2.72h-1.14l.12-.86h1.14l.21-1.46h.99l-.21,1.46h1.43l-.12.86Z"/><path class="f" d="M159.44,40.97h.99l-.55,3.91h.02c.17-.28.42-.5.75-.68.33-.17.7-.26,1.1-.26.25,0,.48.04.7.12s.41.2.56.36.26.37.32.62c.07.25.07.55.02.9l-.46,3.36h-.99l.43-3.08c.03-.24.02-.45-.02-.62-.04-.17-.11-.31-.2-.42s-.21-.18-.35-.23c-.14-.05-.29-.07-.44-.07-.21,0-.4.03-.59.1-.19.07-.36.17-.51.31-.15.14-.28.33-.38.54-.1.22-.18.48-.22.78l-.37,2.68h-.99l1.17-8.32Z"/><path class="f" d="M164.49,44.07h1.14l.98,4.07h.02l2.05-4.07h1.06l-3.36,6.34c-.12.23-.24.43-.36.62-.12.19-.26.35-.41.48-.15.13-.33.24-.52.31-.2.07-.43.11-.7.11-.15,0-.29,0-.44-.03s-.28-.06-.41-.12l.23-.9c.18.08.38.12.58.12.15,0,.29-.02.4-.06s.21-.1.3-.18.16-.17.23-.27c.07-.1.14-.22.2-.35l.43-.83-1.43-5.25Z"/><path class="f" d="M171.13,40.97h.99l-1.17,8.32h-.99l1.17-8.32Z"/><path class="f" d="M173.19,44.71c.31-.26.67-.45,1.05-.58s.76-.19,1.13-.19.7.05.97.14c.26.1.47.22.63.38.15.16.26.35.31.56.05.21.06.43.03.65l-.37,2.66c-.03.18-.05.35-.07.51-.01.15-.02.3-.02.44h-.88c0-.13.02-.26.03-.4.01-.13.03-.26.05-.4h-.02c-.27.34-.57.58-.88.71-.32.14-.68.21-1.07.21-.24,0-.47-.03-.68-.1-.21-.07-.39-.17-.53-.3-.15-.13-.25-.3-.32-.49-.07-.19-.09-.42-.05-.68.04-.34.16-.62.34-.85.18-.23.42-.41.7-.55.28-.14.6-.25.96-.31.36-.06.73-.09,1.13-.09h.73l.03-.22c.02-.13.02-.26-.02-.4-.03-.13-.09-.25-.18-.36-.09-.11-.21-.19-.35-.25-.15-.06-.33-.09-.54-.09-.19,0-.36.02-.51.05-.15.04-.29.08-.41.14s-.24.12-.34.19c-.11.07-.21.14-.31.21l-.51-.62ZM175.69,46.77c-.24,0-.48.01-.73.04-.25.03-.48.08-.7.15-.21.07-.39.18-.54.31-.15.13-.24.3-.27.51-.04.3.03.52.21.65.18.13.45.2.79.2.27,0,.51-.05.71-.14.2-.09.37-.21.51-.36.14-.15.25-.31.33-.49s.13-.36.15-.53l.05-.33h-.53Z"/><path class="f" d="M181.65,44.93h-1.42l-.32,2.37c-.02.15-.04.29-.05.43-.01.14,0,.27.03.38.03.11.09.21.18.28s.23.1.42.1c.12,0,.24-.01.37-.03.13-.02.25-.06.36-.12l-.13.9c-.07.04-.14.07-.23.09-.08.02-.17.04-.25.05-.08.01-.17.02-.24.03-.08,0-.14.01-.19.01-.38,0-.67-.05-.87-.16-.2-.11-.33-.24-.41-.41-.08-.17-.11-.36-.1-.57.01-.21.03-.42.06-.63l.38-2.72h-1.14l.12-.86h1.14l.21-1.46h.99l-.21,1.46h1.43l-.12.86Z"/><path class="f" d="M183.11,44.07h.99l-.73,5.21h-.99l.73-5.21ZM183.14,42.2c.03-.2.12-.37.29-.51.16-.14.34-.21.54-.21s.36.07.48.21c.12.14.17.31.14.51s-.12.37-.29.51c-.16.14-.34.21-.54.21s-.36-.07-.48-.21c-.12-.14-.17-.31-.14-.51Z"/><path class="f" d="M185.06,46.67c.05-.38.17-.74.36-1.07s.43-.62.71-.87.61-.45.96-.59c.36-.14.73-.21,1.12-.21s.74.07,1.06.21c.32.14.58.34.8.59.22.25.37.54.47.87.09.33.12.69.07,1.07-.06.38-.18.74-.37,1.07-.19.33-.42.62-.71.87-.29.25-.61.44-.96.58-.36.14-.73.21-1.12.21s-.74-.07-1.06-.21c-.32-.14-.58-.34-.8-.58-.21-.25-.37-.54-.47-.87-.1-.33-.12-.69-.06-1.07ZM186.11,46.67c-.04.26-.03.51.02.73.05.22.13.42.26.57.12.16.29.28.49.37.2.09.43.14.7.14s.51-.05.73-.14.42-.22.59-.37c.17-.16.31-.35.42-.57.11-.22.19-.47.23-.73.04-.26.03-.51-.02-.73-.05-.22-.14-.41-.26-.57-.13-.16-.29-.28-.49-.37-.2-.09-.43-.14-.69-.14s-.51.05-.73.14-.42.22-.59.37c-.17.16-.31.35-.42.57-.11.22-.18.47-.22.73Z"/><path class="f" d="M192.21,44.07h.99l-.11.8h.02c.17-.28.42-.5.75-.68.33-.17.7-.26,1.1-.26.25,0,.48.04.7.12s.41.2.56.36.26.37.32.62c.07.25.07.55.02.9l-.46,3.36h-.99l.43-3.08c.03-.24.02-.45-.02-.62-.04-.17-.11-.31-.2-.42s-.21-.18-.35-.23c-.14-.05-.29-.07-.44-.07-.21,0-.4.03-.59.1-.19.07-.36.17-.51.31-.15.14-.28.33-.38.54-.1.22-.18.48-.22.78l-.37,2.68h-.99l.73-5.21Z"/><path class="f" d="M196.93,50.62c.29-.37.54-.73.77-1.08s.42-.69.59-1.05c.17-.36.3-.72.41-1.11.11-.38.2-.79.26-1.23.11-.81.1-1.59-.03-2.34-.13-.76-.38-1.46-.75-2.1l.71-.44c.42.69.71,1.45.87,2.28.16.83.18,1.7.05,2.61-.12.84-.38,1.69-.77,2.53-.39.84-.9,1.63-1.52,2.35l-.6-.42Z"/><path class="i" d="M35.25,40.64c-.06-2.09-1.91-3.74-4.14-3.68s-3.99,1.8-3.93,3.9c.04,1.64,1.2,3.01,2.77,3.49l.17,6.44c.02.75.65,1.34,1.4,1.32s1.34-.65,1.32-1.4l-.17-6.44c1.54-.57,2.62-1.99,2.58-3.64Z"/><path class="f" d="M236.19,44.66c.09-.02.18-.04.26-.05s.18-.02.27-.02c.37,0,.7.07,1,.2s.56.31.77.54.38.5.5.81.18.64.18,1c0,.4-.08.77-.23,1.09s-.36.61-.62.84c-.26.24-.57.42-.92.54s-.74.19-1.14.19-.79-.06-1.14-.19c-.35-.13-.66-.31-.92-.54-.26-.23-.47-.51-.62-.84-.15-.33-.23-.69-.23-1.09,0-.28.03-.53.08-.76.05-.23.12-.45.2-.65.08-.21.18-.4.3-.59.11-.19.23-.38.36-.58l1.71-2.66h2.01l-1.83,2.78ZM237.52,47.05c0-.35-.12-.64-.35-.87s-.53-.35-.91-.35-.68.12-.91.35-.35.52-.35.87.12.64.35.88c.23.23.53.35.91.35s.68-.12.91-.35c.23-.23.35-.52.35-.88Z"/><path class="f" d="M240.12,44.32h1.58v.73h.02c.05-.1.12-.21.22-.31.09-.1.21-.19.34-.28.13-.08.28-.15.45-.2.17-.05.35-.08.55-.08.37,0,.71.08,1,.23s.51.4.65.73c.19-.34.42-.59.69-.74s.61-.22,1-.22c.36,0,.66.06.91.18.25.12.44.29.58.5.14.21.25.46.31.74.06.28.09.58.09.91v3.16h-1.65v-3.11c0-.25-.05-.46-.16-.64-.11-.18-.3-.27-.57-.27-.19,0-.35.03-.48.09-.13.06-.23.15-.31.26-.08.11-.13.24-.17.38s-.05.3-.05.46v2.83h-1.65v-2.83c0-.09,0-.21-.01-.35,0-.14-.03-.27-.08-.4-.04-.12-.12-.23-.21-.32-.1-.09-.24-.13-.43-.13-.21,0-.38.04-.52.12-.13.08-.23.18-.3.31-.07.13-.12.27-.14.43-.02.16-.03.33-.03.51v2.66h-1.65v-5.35Z"/><path class="f" d="M252.47,41.87h1.42l3.39,7.79h-1.94l-.67-1.65h-3.03l-.65,1.65h-1.89l3.37-7.79ZM253.13,44.14l-.95,2.42h1.9l-.96-2.42Z"/><path class="f" d="M263.98,42.07c-.29.37-.54.73-.77,1.08s-.42.69-.59,1.05c-.17.36-.3.72-.41,1.11-.11.38-.2.79-.26,1.23-.12.81-.11,1.59.02,2.34.13.76.38,1.46.76,2.1l-.71.44c-.42-.69-.71-1.45-.87-2.28-.16-.83-.18-1.7-.05-2.61.12-.84.37-1.69.76-2.53.39-.84.9-1.63,1.52-2.35l.6.42Z"/><path class="f" d="M264.58,45.09c.32-.26.67-.45,1.05-.58s.76-.19,1.13-.19.7.05.97.14c.26.1.47.22.63.38.15.16.26.35.31.56.05.21.06.43.03.65l-.37,2.66c-.03.18-.05.35-.07.51-.01.15-.02.3-.02.44h-.88c0-.13.02-.26.03-.4.01-.13.03-.26.05-.4h-.02c-.27.34-.57.58-.89.71-.32.14-.68.21-1.07.21-.24,0-.47-.03-.68-.1-.21-.07-.39-.17-.53-.3-.15-.13-.25-.3-.32-.49-.07-.19-.09-.42-.05-.68.04-.34.16-.62.34-.85.18-.23.42-.41.7-.55.28-.14.6-.25.96-.31s.73-.09,1.13-.09h.73l.03-.22c.02-.13.02-.26-.02-.4-.03-.13-.09-.25-.18-.36-.09-.11-.21-.19-.35-.25-.15-.06-.33-.09-.54-.09-.19,0-.36.02-.51.05-.15.04-.29.08-.41.14s-.23.12-.34.19-.21.14-.31.21l-.51-.62ZM267.09,47.15c-.24,0-.48.01-.73.04-.25.03-.48.08-.7.15s-.39.18-.54.31-.24.3-.26.51c-.04.3.03.52.21.65.18.13.45.2.79.2.27,0,.51-.05.71-.14.2-.09.37-.21.51-.36.14-.15.25-.31.33-.49.08-.18.13-.36.15-.53l.06-.33h-.53Z"/><path class="f" d="M274.86,49.66h-.99l.1-.75h-.02c-.24.28-.53.5-.88.65-.35.15-.7.23-1.06.23-.4,0-.76-.07-1.07-.21-.31-.14-.56-.33-.75-.58-.19-.25-.33-.54-.41-.87-.08-.33-.09-.69-.03-1.08.05-.39.17-.75.34-1.08s.4-.62.66-.87c.26-.25.57-.44.91-.58.34-.14.72-.21,1.12-.21.37,0,.71.08,1.02.24.3.16.53.37.68.64h.02l.54-3.85h.99l-1.17,8.32ZM272.26,48.87c.26,0,.51-.05.73-.14s.42-.22.59-.37c.17-.16.31-.35.42-.57.11-.22.19-.47.23-.73.04-.26.03-.51-.02-.73-.05-.22-.14-.41-.26-.57-.13-.16-.29-.28-.49-.37s-.43-.14-.69-.14-.51.05-.73.14-.42.22-.59.37c-.17.16-.31.35-.42.57-.11.22-.18.47-.22.73-.04.26-.03.51.02.73.05.22.13.42.26.57.12.16.29.28.49.37.2.09.43.14.7.14Z"/><path class="f" d="M281.58,49.66h-.99l.1-.75h-.02c-.24.28-.53.5-.88.65-.35.15-.7.23-1.06.23-.4,0-.76-.07-1.07-.21-.31-.14-.56-.33-.75-.58-.19-.25-.33-.54-.41-.87-.08-.33-.09-.69-.03-1.08.05-.39.17-.75.34-1.08s.4-.62.66-.87c.26-.25.57-.44.91-.58.34-.14.72-.21,1.12-.21.37,0,.71.08,1.02.24.3.16.53.37.68.64h.02l.54-3.85h.99l-1.17,8.32ZM278.98,48.87c.26,0,.51-.05.73-.14s.42-.22.59-.37c.17-.16.31-.35.42-.57.11-.22.19-.47.23-.73.04-.26.03-.51-.02-.73-.05-.22-.14-.41-.26-.57-.13-.16-.29-.28-.49-.37s-.43-.14-.69-.14-.51.05-.73.14-.42.22-.59.37c-.17.16-.31.35-.42.57-.11.22-.18.47-.22.73-.04.26-.03.51.02.73.05.22.13.42.26.57.12.16.29.28.49.37.2.09.43.14.7.14Z"/><path class="f" d="M284.12,47.42c-.03.23,0,.43.07.62.07.19.18.35.33.48.14.13.32.23.52.31.2.07.42.11.65.11.31,0,.59-.07.83-.21.25-.14.48-.33.71-.57l.66.57c-.65.71-1.46,1.07-2.45,1.07-.41,0-.77-.07-1.08-.21-.31-.14-.57-.33-.76-.58-.2-.25-.34-.54-.42-.87-.08-.33-.09-.69-.03-1.08.05-.39.17-.75.35-1.08s.41-.62.69-.87c.28-.25.59-.44.93-.58.35-.14.72-.21,1.11-.21.46,0,.84.08,1.14.24.3.16.53.37.7.63.17.26.27.55.32.88.04.33.04.66,0,1l-.05.35h-4.19ZM287.38,46.63c.02-.22.01-.42-.02-.6-.04-.18-.11-.34-.21-.48s-.24-.24-.42-.32c-.18-.08-.39-.12-.64-.12s-.47.05-.69.14c-.21.09-.4.21-.57.36-.17.15-.3.31-.4.49s-.17.36-.19.53h3.15Z"/><path class="f" d="M294.42,49.66h-.99l.1-.75h-.02c-.24.28-.53.5-.88.65-.35.15-.7.23-1.06.23-.4,0-.76-.07-1.07-.21-.31-.14-.56-.33-.75-.58-.19-.25-.33-.54-.41-.87-.08-.33-.09-.69-.03-1.08.05-.39.17-.75.34-1.08s.4-.62.66-.87c.26-.25.57-.44.91-.58.34-.14.72-.21,1.12-.21.37,0,.71.08,1.02.24.3.16.53.37.68.64h.02l.54-3.85h.99l-1.17,8.32ZM291.82,48.87c.26,0,.51-.05.73-.14s.42-.22.59-.37c.17-.16.31-.35.42-.57.11-.22.19-.47.23-.73.04-.26.03-.51-.02-.73-.05-.22-.14-.41-.26-.57-.13-.16-.29-.28-.49-.37s-.43-.14-.69-.14-.51.05-.73.14-.42.22-.59.37c-.17.16-.31.35-.42.57-.11.22-.18.47-.22.73-.04.26-.03.51.02.73.05.22.13.42.26.57.12.16.29.28.49.37.2.09.43.14.7.14Z"/><path class="f" d="M302.38,45.31h-1.42l-.32,2.37c-.02.15-.04.29-.05.43-.01.14,0,.27.03.38.03.11.09.21.18.28s.23.1.42.1c.12,0,.24-.01.37-.03.13-.02.25-.06.36-.12l-.13.9c-.07.04-.14.07-.23.09-.08.02-.17.04-.25.05-.08.01-.17.02-.24.03-.08,0-.14.01-.19.01-.38,0-.67-.05-.87-.16-.2-.11-.33-.24-.41-.41-.08-.17-.11-.36-.1-.57.01-.21.03-.42.06-.63l.38-2.72h-1.14l.12-.86h1.14l.21-1.46h.99l-.21,1.46h1.43l-.12.86Z"/><path class="f" d="M303.15,47.05c.05-.38.17-.74.36-1.07.19-.33.43-.62.71-.87s.61-.45.96-.59c.36-.14.73-.21,1.12-.21s.74.07,1.06.21c.32.14.58.34.8.59.22.25.37.54.47.87.1.33.12.69.07,1.07-.06.38-.18.74-.37,1.07-.19.33-.42.62-.71.87-.29.25-.61.44-.96.58-.36.14-.73.21-1.12.21s-.74-.07-1.06-.21c-.32-.14-.58-.34-.8-.58-.21-.25-.37-.54-.47-.87-.1-.33-.12-.69-.06-1.07ZM304.21,47.05c-.04.26-.03.51.02.73.05.22.13.42.26.57.12.16.29.28.49.37.2.09.43.14.7.14s.51-.05.73-.14.42-.22.59-.37c.17-.16.31-.35.42-.57.11-.22.19-.47.23-.73.04-.26.03-.51-.02-.73-.05-.22-.14-.41-.26-.57-.13-.16-.29-.28-.49-.37s-.43-.14-.69-.14-.51.05-.73.14-.42.22-.59.37c-.17.16-.31.35-.42.57-.11.22-.18.47-.22.73Z"/><path class="f" d="M312.74,47.05c.05-.38.17-.74.36-1.07s.43-.62.71-.87.61-.45.96-.59c.36-.14.73-.21,1.12-.21s.74.07,1.06.21c.32.14.58.34.8.59.22.25.37.54.47.87.09.33.12.69.07,1.07-.06.38-.18.74-.37,1.07-.19.33-.42.62-.71.87-.29.25-.61.44-.96.58-.36.14-.73.21-1.12.21s-.74-.07-1.06-.21c-.32-.14-.58-.34-.8-.58-.21-.25-.37-.54-.47-.87-.1-.33-.12-.69-.06-1.07ZM313.8,47.05c-.04.26-.03.51.02.73.05.22.13.42.26.57.12.16.29.28.49.37.2.09.43.14.7.14s.51-.05.73-.14.42-.22.59-.37c.17-.16.31-.35.42-.57.11-.22.19-.47.23-.73.04-.26.03-.51-.02-.73-.05-.22-.14-.41-.26-.57-.13-.16-.29-.28-.49-.37-.2-.09-.43-.14-.69-.14s-.51.05-.73.14-.42.22-.59.37c-.17.16-.31.35-.42.57-.11.22-.18.47-.22.73Z"/><path class="f" d="M319.89,44.45h.99l-.1.75h.02c.23-.28.53-.5.88-.65.35-.15.7-.23,1.06-.23.4,0,.76.07,1.07.21.31.14.56.33.75.58s.33.54.41.87c.08.33.09.69.04,1.07-.06.39-.17.75-.35,1.08-.17.33-.39.62-.66.87-.26.25-.57.44-.91.58-.34.14-.72.21-1.12.21-.37,0-.72-.08-1.02-.24s-.53-.37-.67-.64h-.02l-.54,3.85h-.99l1.17-8.32ZM322.49,45.24c-.26,0-.51.05-.73.14s-.42.22-.59.37c-.17.16-.31.35-.42.57-.11.22-.18.47-.22.73-.04.26-.03.51.02.73.05.22.13.42.26.57.12.16.29.28.49.37.2.09.43.14.7.14s.51-.05.73-.14.42-.22.59-.37c.17-.16.31-.35.42-.57.11-.22.19-.47.23-.73.04-.26.03-.51-.02-.73-.05-.22-.14-.41-.26-.57-.13-.16-.29-.28-.49-.37-.2-.09-.43-.14-.69-.14Z"/><path class="f" d="M326.93,47.42c-.03.23,0,.43.07.62.07.19.18.35.33.48.14.13.32.23.52.31.2.07.42.11.65.11.31,0,.59-.07.83-.21.25-.14.48-.33.71-.57l.66.57c-.65.71-1.46,1.07-2.45,1.07-.41,0-.77-.07-1.08-.21-.31-.14-.57-.33-.76-.58-.2-.25-.34-.54-.42-.87-.08-.33-.09-.69-.03-1.08.05-.39.17-.75.35-1.08s.41-.62.69-.87c.28-.25.59-.44.93-.58.35-.14.72-.21,1.11-.21.46,0,.84.08,1.14.24.3.16.53.37.7.63.17.26.27.55.32.88.04.33.04.66,0,1l-.05.35h-4.19ZM330.19,46.63c.02-.22.01-.42-.02-.6-.04-.18-.11-.34-.21-.48s-.24-.24-.42-.32c-.18-.08-.39-.12-.64-.12s-.47.05-.69.14c-.21.09-.4.21-.57.36-.17.15-.3.31-.4.49s-.17.36-.19.53h3.15Z"/><path class="f" d="M332.73,44.45h.99l-.11.8h.02c.17-.28.42-.5.75-.68.33-.17.7-.26,1.1-.26.25,0,.48.04.7.12.22.08.4.2.55.36s.26.37.33.62c.07.25.07.55.02.9l-.46,3.36h-.99l.43-3.08c.03-.24.02-.45-.02-.62-.04-.17-.11-.31-.2-.42s-.21-.18-.35-.23-.29-.07-.44-.07c-.21,0-.4.03-.59.1-.19.07-.36.17-.51.31-.15.14-.28.33-.38.54s-.18.48-.22.78l-.37,2.68h-.99l.73-5.21Z"/><path class="f" d="M345.44,45.83c-.15-.19-.32-.33-.51-.43-.19-.1-.42-.15-.7-.15s-.51.05-.73.15c-.22.1-.4.24-.57.41s-.29.37-.39.59-.17.46-.2.7c-.04.24-.03.47.02.69.05.22.14.41.26.57.12.16.28.29.48.38s.42.14.67.14c.28,0,.52-.05.73-.15s.41-.24.6-.43l.6.7c-.3.29-.63.49-.98.62-.36.12-.72.19-1.11.19-.4,0-.76-.07-1.08-.2-.32-.13-.58-.32-.78-.55s-.35-.52-.44-.86c-.09-.33-.1-.7-.04-1.11.05-.4.17-.77.35-1.11.18-.34.41-.63.68-.87.27-.24.59-.43.94-.57.35-.14.73-.2,1.14-.2.38,0,.74.07,1.06.2s.6.34.82.62l-.84.68Z"/><path class="f" d="M347.65,41.35h.99l-.55,3.91h.02c.17-.28.42-.5.75-.68.33-.17.7-.26,1.1-.26.25,0,.48.04.7.12s.41.2.56.36.26.37.32.62c.07.25.07.55.02.9l-.46,3.36h-.99l.43-3.08c.03-.24.02-.45-.02-.62-.04-.17-.11-.31-.2-.42s-.21-.18-.35-.23c-.14-.05-.29-.07-.44-.07-.21,0-.4.03-.59.1-.19.07-.36.17-.51.31-.15.14-.28.33-.38.54-.1.22-.18.48-.22.78l-.37,2.68h-.99l1.17-8.32Z"/><path class="f" d="M353.32,44.45h.99l-.11.8h.02c.17-.28.41-.5.73-.68.32-.17.64-.26.97-.26.16,0,.3.02.43.07l-.2,1.07c-.08-.02-.16-.04-.24-.05s-.16-.02-.24-.02c-.48,0-.87.14-1.17.41-.29.27-.48.69-.56,1.26l-.36,2.62h-.99l.73-5.21Z"/><path class="f" d="M356.58,47.05c.05-.38.17-.74.36-1.07s.43-.62.71-.87.61-.45.96-.59c.36-.14.73-.21,1.12-.21s.74.07,1.06.21c.32.14.58.34.8.59.22.25.37.54.47.87.09.33.12.69.07,1.07-.06.38-.18.74-.37,1.07-.19.33-.42.62-.71.87-.29.25-.61.44-.96.58-.36.14-.73.21-1.12.21s-.74-.07-1.06-.21c-.32-.14-.58-.34-.8-.58-.21-.25-.37-.54-.47-.87-.1-.33-.12-.69-.06-1.07ZM357.63,47.05c-.04.26-.03.51.02.73.05.22.13.42.26.57.12.16.29.28.49.37.2.09.43.14.7.14s.51-.05.73-.14.42-.22.59-.37c.17-.16.31-.35.42-.57.11-.22.19-.47.23-.73.04-.26.03-.51-.02-.73-.05-.22-.14-.41-.26-.57-.13-.16-.29-.28-.49-.37-.2-.09-.43-.14-.69-.14s-.51.05-.73.14-.42.22-.59.37c-.17.16-.31.35-.42.57-.11.22-.18.47-.22.73Z"/><path class="f" d="M363.73,44.45h.92l-.11.81h.02c.04-.07.11-.17.21-.27.1-.11.23-.21.4-.31.16-.1.34-.18.54-.25.2-.07.42-.1.65-.1.75,0,1.25.32,1.48.97.22-.32.49-.56.82-.73.33-.16.65-.24.97-.24.4,0,.72.07.96.2.24.13.41.31.53.52.11.22.18.46.2.74.02.28,0,.56-.04.85l-.41,3.04h-.99l.41-2.9c.03-.2.04-.39.04-.57,0-.18-.04-.34-.09-.48s-.16-.25-.29-.34c-.14-.08-.32-.13-.57-.13-.48,0-.84.15-1.08.44-.25.29-.4.67-.47,1.13l-.4,2.85h-.99l.37-2.73c.04-.25.06-.48.06-.68s-.02-.38-.08-.53c-.05-.15-.15-.27-.28-.35-.13-.08-.32-.13-.56-.13-.18,0-.35.04-.53.1s-.34.17-.48.31-.27.32-.37.53c-.1.22-.18.47-.22.76l-.37,2.71h-.99l.73-5.21Z"/><path class="f" d="M373.03,45.09c.31-.26.67-.45,1.05-.58s.76-.19,1.13-.19.7.05.97.14c.26.1.47.22.63.38.15.16.26.35.31.56.05.21.06.43.03.65l-.37,2.66c-.03.18-.05.35-.07.51-.01.15-.02.3-.02.44h-.88c0-.13.02-.26.03-.4.01-.13.03-.26.05-.4h-.02c-.27.34-.57.58-.88.71-.32.14-.68.21-1.07.21-.24,0-.47-.03-.68-.1-.21-.07-.39-.17-.53-.3-.15-.13-.25-.3-.32-.49-.07-.19-.09-.42-.05-.68.04-.34.16-.62.34-.85.18-.23.42-.41.7-.55.28-.14.6-.25.96-.31.36-.06.73-.09,1.13-.09h.73l.03-.22c.02-.13.02-.26-.02-.4-.03-.13-.09-.25-.18-.36-.09-.11-.21-.19-.35-.25-.15-.06-.33-.09-.54-.09-.19,0-.36.02-.51.05-.15.04-.29.08-.41.14s-.24.12-.34.19c-.11.07-.21.14-.31.21l-.51-.62ZM375.54,47.15c-.24,0-.48.01-.73.04-.25.03-.48.08-.7.15-.21.07-.39.18-.54.31-.15.13-.24.3-.27.51-.04.3.03.52.21.65.18.13.45.2.79.2.27,0,.51-.05.71-.14.2-.09.37-.21.51-.36.14-.15.25-.31.33-.49s.13-.36.15-.53l.05-.33h-.53Z"/><path class="f" d="M381.49,45.31h-1.42l-.32,2.37c-.02.15-.04.29-.05.43-.01.14,0,.27.03.38.03.11.09.21.18.28s.23.1.42.1c.12,0,.24-.01.37-.03.13-.02.25-.06.36-.12l-.13.9c-.07.04-.14.07-.23.09-.08.02-.17.04-.25.05-.08.01-.17.02-.24.03-.08,0-.14.01-.19.01-.38,0-.67-.05-.87-.16-.2-.11-.33-.24-.41-.41-.08-.17-.11-.36-.1-.57.01-.21.03-.42.06-.63l.38-2.72h-1.14l.12-.86h1.14l.21-1.46h.99l-.21,1.46h1.43l-.12.86Z"/><path class="f" d="M382.95,44.45h.99l-.73,5.21h-.99l.73-5.21ZM382.99,42.58c.03-.2.12-.37.29-.51.16-.14.34-.21.54-.21s.36.07.48.21c.12.14.17.31.14.51s-.12.37-.29.51c-.16.14-.34.21-.54.21s-.36-.07-.48-.21c-.12-.14-.17-.31-.14-.51Z"/><path class="f" d="M385.52,44.45h.99l-.11.8h.02c.17-.28.42-.5.75-.68.33-.17.7-.26,1.1-.26.25,0,.48.04.7.12s.41.2.56.36.26.37.32.62c.07.25.07.55.02.9l-.46,3.36h-.99l.43-3.08c.03-.24.02-.45-.02-.62-.04-.17-.11-.31-.2-.42s-.21-.18-.35-.23c-.14-.05-.29-.07-.44-.07-.21,0-.4.03-.59.1-.19.07-.36.17-.51.31-.15.14-.28.33-.38.54-.1.22-.18.48-.22.78l-.37,2.68h-.99l.73-5.21Z"/><path class="f" d="M390.24,51c.29-.37.54-.73.77-1.08s.42-.69.59-1.05c.17-.36.3-.72.41-1.11.11-.38.2-.79.26-1.23.11-.81.1-1.59-.03-2.34-.13-.76-.38-1.46-.75-2.1l.71-.44c.42.69.71,1.45.87,2.28.16.83.18,1.7.05,2.61-.12.84-.38,1.69-.77,2.53-.39.84-.9,1.63-1.52,2.35l-.6-.42Z"/><path class="h" d="M224.82,40.97c-.06-2.09-1.91-3.74-4.14-3.68s-3.99,1.8-3.93,3.9c.04,1.64,1.2,3.01,2.77,3.49l.17,6.44c.02.75.65,1.34,1.4,1.32s1.34-.65,1.32-1.4l-.17-6.44c1.54-.57,2.62-1.99,2.58-3.64Z"/><path class="g" d="M202.03,75.3c-.1-9.51,7.16-14.71,19-14.63,11.95,1.93,15.47,7.79,14.61,17.08.02,7.49-5.74,14.46-17.36,15.54-5.63,1.1-9.79.99-12.49-2.61-2.7-3.3-3.96-10.1-3.75-15.37Z"/><rect class="b" x="197.02" y="72.04" width="43.55" height="49.4"/><path class="j" d="M206.77,72.62h1.87v3.17h3.64v-3.17h1.87v8.5h-1.87v-3.67h-3.64v3.67h-1.87v-8.5Z"/><path class="j" d="M215.53,73.45c0-.29.1-.53.31-.74s.45-.31.74-.31.53.1.74.31c.2.2.31.45.31.74s-.1.53-.31.74c-.2.2-.45.31-.74.31s-.53-.1-.74-.31-.31-.45-.31-.74ZM215.67,75.28h1.8v5.83h-1.8v-5.83Z"/><path class="j" d="M222.43,80.38h-.02c-.2.31-.47.54-.8.67-.33.14-.68.2-1.05.2-.27,0-.53-.04-.79-.11-.25-.08-.47-.19-.67-.34-.19-.15-.34-.34-.46-.56-.11-.22-.17-.48-.17-.78,0-.34.06-.62.19-.85s.29-.42.5-.58.45-.27.73-.35c.27-.08.55-.15.85-.19s.58-.06.88-.07c.29,0,.56-.01.81-.01,0-.32-.11-.57-.34-.76-.23-.19-.5-.28-.81-.28s-.57.06-.81.19c-.24.12-.46.29-.65.51l-.96-.98c.34-.31.73-.55,1.18-.7.45-.16.91-.23,1.39-.23.53,0,.96.07,1.3.2.34.13.61.33.82.58.2.26.35.57.43.94s.12.8.12,1.29v2.96h-1.66v-.73ZM221.99,78.56c-.14,0-.31,0-.51.02-.2.01-.4.05-.59.1-.19.06-.35.14-.48.25-.13.11-.2.27-.2.47,0,.22.09.38.28.48.18.1.38.16.58.16.18,0,.35-.02.51-.07.16-.05.31-.12.44-.2.13-.09.23-.2.31-.34.08-.14.11-.3.11-.48v-.38h-.44Z"/><path class="j" d="M230.78,74.2h-3.37l-.04,1.31c.18-.06.44-.1.76-.1.43,0,.83.06,1.19.19.36.13.67.31.93.56s.46.54.61.89c.14.35.22.74.22,1.17,0,.48-.08.91-.25,1.28-.16.38-.39.69-.68.95-.29.26-.63.46-1.03.59-.4.14-.83.2-1.29.2-.74,0-1.35-.18-1.85-.54-.5-.36-.84-.9-1.02-1.63l1.88-.43c.05.3.18.55.38.74.21.19.47.28.78.28.38,0,.69-.12.92-.36.23-.24.34-.54.34-.91,0-.28-.06-.51-.17-.69-.12-.18-.27-.32-.46-.43-.19-.11-.4-.18-.63-.22s-.46-.06-.7-.06c-.3,0-.59.03-.89.08-.3.06-.59.13-.87.23l.1-4.69h5.14v1.58Z"/><path class="f" d="M240.86,132.69h3.16c.44,0,.86.04,1.25.12.39.08.73.22,1.03.41s.52.46.7.79.26.75.26,1.25-.08.91-.24,1.25-.38.6-.66.8c-.28.2-.61.34-1,.43-.38.08-.8.13-1.25.13h-1.37v3.31h-1.87v-8.5ZM242.73,136.29h1.25c.17,0,.33-.02.49-.05.16-.03.3-.09.42-.16.12-.08.22-.18.3-.31s.11-.3.11-.5c0-.22-.05-.39-.15-.52-.1-.13-.23-.23-.38-.31-.16-.07-.33-.12-.52-.14-.19-.02-.38-.03-.55-.03h-.96v2.02Z"/><path class="f" d="M251.85,140.46h-.02c-.2.31-.47.54-.8.67-.33.14-.68.2-1.05.2-.27,0-.53-.04-.79-.11-.25-.08-.47-.19-.67-.34-.19-.15-.34-.34-.46-.56s-.17-.48-.17-.78c0-.34.06-.62.19-.85.12-.23.29-.42.5-.58s.45-.27.73-.35c.27-.08.55-.15.85-.19s.58-.06.88-.07c.29,0,.56-.01.81-.01,0-.32-.11-.57-.34-.76-.23-.19-.5-.28-.81-.28-.3,0-.57.06-.81.19-.24.12-.46.29-.65.51l-.96-.98c.34-.31.73-.55,1.18-.7s.91-.23,1.39-.23c.53,0,.96.07,1.3.2s.61.33.82.58c.2.26.35.57.43.94s.12.8.12,1.29v2.96h-1.66v-.73ZM251.4,138.63c-.14,0-.31,0-.51.02s-.4.05-.59.1c-.19.06-.35.14-.48.25-.13.11-.2.27-.2.47,0,.22.09.38.28.48.18.1.38.16.58.16.18,0,.35-.02.51-.07.16-.05.31-.12.44-.2.13-.09.23-.2.31-.34.08-.14.11-.3.11-.48v-.38h-.44Z"/><path class="f" d="M258.58,137.24c-.09-.13-.21-.23-.37-.32s-.33-.13-.52-.13c-.46,0-.81.14-1.06.41-.25.27-.38.63-.38,1.07s.13.8.38,1.07c.25.27.61.41,1.06.41.2,0,.37-.04.52-.13.14-.09.27-.19.37-.31l1.19,1.25c-.28.29-.61.49-.99.61-.38.12-.74.17-1.09.17-.45,0-.87-.07-1.27-.22-.4-.14-.74-.35-1.03-.62-.29-.27-.52-.59-.69-.97s-.25-.8-.25-1.26.08-.88.25-1.26.4-.7.69-.97c.29-.27.64-.47,1.03-.62.4-.14.82-.22,1.27-.22.34,0,.71.06,1.09.17s.71.32.99.61l-1.19,1.25Z"/><path class="f" d="M260.64,132.69h3.17c.37,0,.74.03,1.11.08s.71.16,1,.31c.3.16.54.37.72.65.18.28.28.65.28,1.12s-.13.88-.4,1.19c-.27.32-.62.54-1.06.68v.02c.28.04.53.12.76.23.23.12.42.26.59.44.16.18.29.39.38.63s.13.5.13.77c0,.45-.1.82-.29,1.12-.19.3-.44.54-.74.73-.3.18-.65.32-1.03.4s-.76.12-1.13.12h-3.48v-8.5ZM262.52,136.09h1.36c.14,0,.29-.02.43-.05.14-.03.27-.08.38-.16.11-.07.2-.17.27-.29.07-.12.1-.26.1-.43s-.04-.32-.11-.44-.17-.21-.29-.27c-.12-.06-.26-.11-.41-.14-.15-.03-.3-.04-.44-.04h-1.27v1.81ZM262.52,139.61h1.68c.14,0,.29-.02.44-.05.15-.03.28-.09.4-.17.12-.08.22-.18.29-.31s.11-.28.11-.47c0-.2-.05-.36-.15-.49-.1-.12-.23-.22-.38-.28-.15-.06-.32-.11-.49-.13-.18-.02-.34-.04-.49-.04h-1.42v1.93Z"/><path class="f" d="M268.07,133.52c0-.29.1-.53.31-.74.2-.2.45-.31.74-.31s.53.1.74.31.31.45.31.74-.1.53-.31.74-.45.31-.74.31-.53-.1-.74-.31c-.2-.2-.31-.45-.31-.74ZM268.22,135.36h1.8v5.83h-1.8v-5.83Z"/><path class="f" d="M271.1,138.27c0-.46.08-.88.25-1.26s.4-.7.69-.97c.29-.27.64-.47,1.03-.62.4-.14.82-.22,1.27-.22s.87.07,1.27.22c.4.14.74.35,1.03.62.29.27.52.59.69.97s.25.8.25,1.26-.08.88-.25,1.26-.4.7-.69.97c-.29.27-.64.47-1.03.62-.4.14-.82.22-1.27.22s-.87-.07-1.27-.22c-.4-.14-.74-.35-1.03-.62-.29-.27-.52-.59-.69-.97s-.25-.8-.25-1.26ZM272.9,138.27c0,.44.13.8.38,1.07.25.27.61.41,1.06.41s.81-.14,1.06-.41c.25-.27.38-.63.38-1.07s-.13-.8-.38-1.07c-.25-.27-.61-.41-1.06-.41s-.81.14-1.06.41c-.25.27-.38.63-.38,1.07Z"/><path class="f" d="M282.41,132.69h1.87v3.17h3.64v-3.17h1.87v8.5h-1.87v-3.67h-3.64v3.67h-1.87v-8.5Z"/><path class="f" d="M291.17,133.52c0-.29.1-.53.31-.74.2-.2.45-.31.74-.31s.53.1.74.31.31.45.31.74-.1.53-.31.74-.45.31-.74.31-.53-.1-.74-.31c-.2-.2-.31-.45-.31-.74ZM291.32,135.36h1.8v5.83h-1.8v-5.83Z"/><path class="f" d="M294.71,132.69h5.7v1.73h-3.83v1.73h3.54v1.73h-3.54v3.31h-1.87v-8.5Z"/><path class="f" d="M301.41,133.52c0-.29.1-.53.31-.74s.45-.31.74-.31.53.1.74.31c.2.2.31.45.31.74s-.1.53-.31.74c-.2.2-.45.31-.74.31s-.53-.1-.74-.31-.31-.45-.31-.74ZM301.55,135.36h1.8v5.83h-1.8v-5.83Z"/><path class="f" d="M312.63,134.77c-.15-.19-.36-.33-.62-.43s-.51-.14-.74-.14c-.14,0-.28.02-.42.05-.14.03-.28.08-.41.15-.13.07-.23.16-.31.27-.08.11-.12.25-.12.41,0,.26.1.45.29.59.19.14.43.25.73.35s.61.19.94.29c.34.1.65.23.94.41.29.18.53.41.73.71s.29.69.29,1.19-.09.88-.26,1.24c-.18.35-.41.64-.71.88-.3.23-.65.4-1.04.52-.4.11-.81.17-1.25.17-.55,0-1.06-.08-1.54-.25-.47-.17-.91-.44-1.32-.82l1.33-1.46c.19.26.43.45.73.59.29.14.59.21.91.21.15,0,.31-.02.46-.05.16-.04.3-.09.42-.16.12-.07.22-.16.3-.28s.11-.24.11-.4c0-.26-.1-.46-.29-.61s-.44-.27-.74-.38c-.3-.1-.62-.21-.96-.31-.34-.1-.66-.24-.96-.42-.3-.18-.54-.41-.74-.7-.2-.29-.29-.67-.29-1.14s.09-.86.27-1.2c.18-.34.42-.63.72-.86.3-.23.65-.41,1.04-.52s.8-.17,1.21-.17c.48,0,.94.07,1.39.2.45.14.85.36,1.21.68l-1.28,1.4Z"/><path class="f" d="M320.61,140.18c-.29.37-.65.65-1.09.85-.44.2-.9.3-1.37.3s-.87-.07-1.27-.22c-.4-.14-.74-.35-1.03-.62-.29-.27-.52-.59-.69-.97s-.25-.8-.25-1.26.08-.88.25-1.26.4-.7.69-.97c.29-.27.64-.47,1.03-.62.4-.14.82-.22,1.27-.22.42,0,.79.07,1.13.22.34.14.63.35.86.62.24.27.42.59.55.97s.19.8.19,1.26v.56h-4.18c.07.34.23.62.47.82.24.2.54.31.89.31.3,0,.55-.07.75-.2s.38-.3.53-.51l1.26.92ZM319.08,137.61c0-.3-.09-.56-.3-.78-.21-.22-.48-.32-.8-.32-.2,0-.38.03-.53.1-.15.06-.28.15-.39.25-.11.1-.19.22-.25.35-.06.13-.09.27-.1.41h2.38Z"/><path class="f" d="M328.09,143.93h-1.8v-3.36h-.02c-.21.28-.47.48-.8.59-.32.12-.67.17-1.05.17-.42,0-.79-.09-1.12-.26s-.61-.4-.83-.69c-.23-.29-.4-.62-.53-.99s-.19-.76-.19-1.17c0-.44.07-.84.2-1.21s.33-.69.58-.95.55-.48.91-.62c.35-.15.74-.22,1.18-.22.2,0,.39.03.58.08.19.06.36.13.52.22.16.09.29.19.41.29.12.11.21.21.28.32h.02v-.77h1.66v8.57ZM326.44,138.27c0-.44-.13-.8-.38-1.07-.25-.27-.61-.41-1.06-.41s-.81.14-1.06.41c-.25.27-.38.63-.38,1.07s.13.8.38,1.07c.25.27.61.41,1.06.41s.81-.14,1.06-.41c.25-.27.38-.63.38-1.07Z"/><path class="f" d="M335.15,141.19h-1.73v-.79h-.02c-.06.11-.15.22-.25.34-.1.11-.22.21-.37.3-.14.09-.31.16-.49.22-.18.06-.38.08-.6.08-.46,0-.83-.07-1.11-.21-.28-.14-.5-.33-.66-.58-.16-.25-.26-.54-.31-.88s-.08-.7-.08-1.09v-3.22h1.8v2.86c0,.17,0,.34.02.52.01.18.05.35.11.5.06.15.15.28.28.37s.3.14.53.14.42-.04.56-.13c.14-.08.25-.2.33-.34.08-.14.13-.3.15-.47.02-.18.04-.36.04-.55v-2.9h1.8v5.83Z"/><path class="f" d="M341.94,140.18c-.29.37-.65.65-1.09.85-.44.2-.9.3-1.37.3-.45,0-.87-.07-1.27-.22-.4-.14-.74-.35-1.03-.62-.29-.27-.52-.59-.69-.97s-.25-.8-.25-1.26.08-.88.25-1.26.4-.7.69-.97c.29-.27.64-.47,1.03-.62.4-.14.82-.22,1.27-.22.42,0,.79.07,1.13.22.34.14.63.35.86.62.24.27.42.59.55.97.13.38.19.8.19,1.26v.56h-4.18c.07.34.23.62.47.82s.54.31.89.31c.3,0,.55-.07.75-.2.2-.13.38-.3.53-.51l1.26.92ZM340.42,137.61c0-.3-.09-.56-.3-.78-.21-.22-.48-.32-.8-.32-.2,0-.38.03-.53.1-.15.06-.28.15-.39.25-.11.1-.19.22-.25.35-.06.13-.09.27-.1.41h2.38Z"/><path class="f" d="M343.31,135.36h1.73v.79h.02c.06-.11.14-.22.24-.34.1-.11.23-.21.37-.3.14-.09.31-.16.49-.22.18-.06.38-.08.6-.08.46,0,.82.07,1.1.21.28.14.5.33.65.58s.26.54.32.88c.06.34.08.7.08,1.09v3.22h-1.8v-2.86c0-.17,0-.34-.02-.52s-.05-.35-.11-.5c-.06-.15-.15-.28-.28-.37s-.3-.14-.53-.14-.42.04-.56.13c-.14.08-.25.2-.33.34-.08.14-.13.3-.15.47-.02.18-.04.36-.04.55v2.9h-1.8v-5.83Z"/><path class="f" d="M354.15,137.24c-.09-.13-.21-.23-.37-.32s-.33-.13-.52-.13c-.46,0-.81.14-1.06.41-.25.27-.38.63-.38,1.07s.13.8.38,1.07c.25.27.61.41,1.06.41.2,0,.37-.04.52-.13.14-.09.27-.19.37-.31l1.19,1.25c-.28.29-.61.49-.99.61-.38.12-.74.17-1.09.17-.45,0-.87-.07-1.27-.22-.4-.14-.74-.35-1.03-.62-.29-.27-.52-.59-.69-.97s-.25-.8-.25-1.26.08-.88.25-1.26.4-.7.69-.97c.29-.27.64-.47,1.03-.62.4-.14.82-.22,1.27-.22.34,0,.71.06,1.09.17.38.12.71.32.99.61l-1.19,1.25Z"/><path class="f" d="M355.86,133.52c0-.29.1-.53.31-.74s.45-.31.74-.31.53.1.74.31c.2.2.31.45.31.74s-.1.53-.31.74c-.2.2-.45.31-.74.31s-.53-.1-.74-.31-.31-.45-.31-.74ZM356,135.36h1.8v5.83h-1.8v-5.83Z"/><path class="f" d="M359.1,135.36h1.73v.79h.02c.06-.11.14-.22.24-.34.1-.11.23-.21.37-.3.14-.09.31-.16.49-.22.18-.06.38-.08.6-.08.46,0,.82.07,1.1.21.28.14.5.33.65.58.16.25.26.54.32.88s.08.7.08,1.09v3.22h-1.8v-2.86c0-.17,0-.34-.02-.52-.01-.18-.05-.35-.11-.5-.06-.15-.15-.28-.28-.37s-.3-.14-.53-.14-.42.04-.56.13c-.14.08-.25.2-.33.34-.08.14-.13.3-.15.47-.02.18-.04.36-.04.55v2.9h-1.8v-5.83Z"/><path class="f" d="M372.11,140.7c0,1.1-.28,1.94-.83,2.51-.56.57-1.4.86-2.54.86-.52,0-1.03-.06-1.54-.17s-.97-.34-1.39-.68l1-1.49c.28.23.57.42.88.55.31.14.65.2,1.01.2.55,0,.96-.13,1.22-.4.26-.27.39-.61.39-1.03v-.56h-.02c-.21.28-.47.48-.77.59-.31.12-.6.17-.87.17-.43,0-.82-.07-1.18-.22-.35-.15-.65-.36-.91-.62-.25-.27-.45-.59-.58-.95-.14-.37-.2-.77-.2-1.21,0-.38.06-.76.19-1.13.12-.37.3-.69.53-.97.23-.28.51-.51.83-.68s.7-.26,1.12-.26c.26,0,.49.03.7.08.21.06.4.13.57.22s.31.19.43.29c.12.11.22.21.29.32h.02v-.77h1.66v5.34ZM367.57,138.24c0,.19.04.37.11.55.07.17.17.32.31.46.13.13.28.24.46.32s.36.12.57.12.39-.04.56-.12c.18-.08.33-.19.46-.32s.23-.28.31-.46c.07-.17.11-.35.11-.55s-.04-.37-.11-.55-.17-.32-.31-.46-.29-.24-.46-.32c-.18-.08-.36-.12-.56-.12s-.4.04-.57.12c-.17.08-.32.19-.46.32-.13.13-.23.28-.31.46s-.11.35-.11.55Z"/><path class="h" d="M234.77,59.33h1.58v.73h.02c.05-.1.12-.21.22-.31s.21-.19.34-.28c.13-.08.28-.15.45-.2.17-.05.35-.08.55-.08.37,0,.71.08,1,.23.29.15.51.4.65.73.19-.34.42-.59.69-.74.27-.15.6-.22,1-.22.36,0,.66.06.91.18.25.12.44.29.58.5.14.21.25.46.31.74s.09.58.09.91v3.16h-1.65v-3.11c0-.25-.05-.46-.16-.64s-.29-.27-.57-.27c-.19,0-.35.03-.48.09-.13.06-.23.15-.31.26-.08.11-.13.24-.17.38-.03.15-.05.3-.05.46v2.83h-1.65v-2.83c0-.09,0-.21-.01-.35,0-.14-.03-.27-.08-.4-.04-.12-.12-.23-.21-.32-.1-.09-.24-.13-.43-.13-.21,0-.39.04-.52.12-.13.08-.23.18-.3.31-.07.13-.12.27-.14.43-.02.16-.03.33-.03.51v2.66h-1.65v-5.35Z"/><path class="h" d="M249.4,63.75c-.26.34-.6.6-1,.78-.4.18-.82.27-1.25.27s-.8-.07-1.16-.2c-.36-.13-.68-.32-.95-.57-.27-.25-.48-.54-.63-.88-.15-.34-.23-.73-.23-1.16s.08-.81.23-1.16c.15-.34.37-.64.63-.89.27-.25.58-.43.95-.57.36-.13.75-.2,1.16-.2.38,0,.73.07,1.04.2.31.13.58.32.79.57.22.25.38.54.5.89s.18.73.18,1.16v.52h-3.83c.07.32.21.57.43.75.22.19.49.28.81.28.27,0,.5-.06.69-.18.19-.12.35-.28.49-.47l1.16.85ZM248,61.39c0-.28-.08-.52-.28-.71s-.44-.3-.74-.3c-.18,0-.34.03-.48.09-.14.06-.26.13-.36.23-.1.09-.18.2-.23.32s-.09.25-.09.38h2.18Z"/><path class="h" d="M254.29,60.65h-1.45v1.78c0,.15,0,.28.02.4s.05.23.1.31c.05.09.13.16.24.2s.25.07.42.07c.09,0,.2,0,.35-.03.14-.02.25-.06.33-.13v1.38c-.18.07-.37.11-.57.13-.2.02-.39.03-.58.03-.28,0-.54-.03-.77-.09-.23-.06-.44-.15-.62-.28-.18-.13-.31-.29-.41-.5-.1-.21-.15-.45-.15-.75v-2.54h-1.06v-1.32h1.06v-1.58h1.65v1.58h1.45v1.32Z"/><path class="h" d="M256.78,56.36v3.7h.02c.04-.1.1-.21.19-.31s.19-.19.32-.28c.12-.08.27-.15.44-.2.17-.05.35-.08.55-.08.42,0,.75.06,1.01.19.26.13.46.31.6.53s.24.5.29.8c.05.31.08.64.08,1v2.95h-1.65v-2.62c0-.15,0-.31-.02-.48s-.04-.32-.1-.46c-.05-.14-.14-.25-.25-.34-.11-.09-.28-.13-.49-.13s-.38.04-.52.12c-.13.08-.23.18-.3.31-.07.13-.12.27-.14.43-.02.16-.03.33-.03.51v2.66h-1.65v-8.32h1.65Z"/><path class="h" d="M264.52,65.54c-.11.29-.22.54-.32.76-.1.22-.23.41-.39.56-.16.15-.36.26-.6.34s-.56.12-.96.12c-.43,0-.84-.07-1.23-.2l.22-1.35c.25.11.51.17.77.17.18,0,.33-.02.45-.06s.21-.1.29-.18.14-.17.19-.28c.05-.11.11-.24.17-.39l.12-.31-2.34-5.39h1.78l1.38,3.53h.02l1.18-3.53h1.69l-2.42,6.21Z"/><path class="h" d="M267.58,56.36h1.65v8.32h-1.65v-8.32Z"/><path class="h" d="M274.06,60.65h-1.45v1.78c0,.15,0,.28.02.4s.05.23.1.31c.05.09.13.16.24.2s.25.07.42.07c.09,0,.2,0,.35-.03.14-.02.25-.06.32-.13v1.38c-.18.07-.37.11-.57.13-.2.02-.39.03-.58.03-.28,0-.54-.03-.77-.09s-.44-.15-.62-.28-.31-.29-.41-.5c-.1-.21-.15-.45-.15-.75v-2.54h-1.06v-1.32h1.06v-1.58h1.65v1.58h1.45v1.32Z"/><path class="h" d="M274.89,59.33h1.65v.86h.02c.18-.33.39-.58.63-.74.24-.17.55-.25.91-.25.1,0,.19,0,.29.01.1,0,.18.02.26.04v1.51c-.12-.04-.23-.06-.35-.08-.11-.02-.23-.03-.36-.03-.32,0-.57.04-.75.13-.18.09-.33.21-.42.37-.1.16-.16.35-.19.57s-.04.46-.04.73v2.23h-1.65v-5.35Z"/><path class="h" d="M282.73,64h-.02c-.18.29-.43.49-.73.62-.3.12-.63.19-.96.19-.25,0-.49-.04-.72-.1-.23-.07-.43-.17-.61-.31-.18-.14-.32-.31-.42-.52s-.15-.44-.15-.71c0-.31.06-.57.17-.78.11-.21.27-.39.46-.53.19-.14.42-.25.67-.32.25-.08.51-.13.78-.17.27-.04.54-.06.8-.07.27,0,.51-.01.74-.01,0-.29-.1-.53-.31-.7-.21-.17-.46-.26-.74-.26s-.52.06-.74.17c-.22.11-.42.27-.6.47l-.88-.9c.31-.29.67-.5,1.08-.64.41-.14.84-.21,1.28-.21.48,0,.88.06,1.19.18s.56.3.75.53c.19.23.32.52.39.86s.11.74.11,1.18v2.72h-1.52v-.67ZM282.32,62.33c-.12,0-.28,0-.47.02-.19.01-.37.04-.54.09-.17.05-.32.13-.44.23s-.18.25-.18.43c0,.2.08.34.25.44.17.09.34.14.53.14.16,0,.32-.02.47-.07s.28-.11.4-.19c.12-.08.21-.18.28-.31.07-.12.1-.27.1-.44v-.35h-.41Z"/><path class="h" d="M285.28,59.33h1.58v.73h.02c.05-.1.12-.21.22-.31s.21-.19.34-.28c.13-.08.28-.15.45-.2.17-.05.35-.08.55-.08.42,0,.76.06,1.01.19.26.13.46.31.6.53.14.23.24.5.29.8.05.31.08.64.08,1v2.95h-1.65v-2.62c0-.15,0-.31-.02-.48-.01-.17-.04-.32-.1-.46-.05-.14-.14-.25-.25-.34-.11-.09-.28-.13-.49-.13s-.39.04-.52.12c-.13.08-.23.18-.3.31-.07.13-.12.27-.14.43-.02.16-.03.33-.03.51v2.66h-1.65v-5.35Z"/><path class="h" d="M294.62,60.9c-.24-.3-.56-.45-.96-.45-.14,0-.27.03-.41.1-.13.07-.2.18-.2.34,0,.13.07.23.2.29s.31.12.52.17.43.1.67.15c.24.06.46.14.67.26s.38.28.52.48c.14.2.2.47.2.81s-.08.63-.23.85-.34.4-.58.54c-.23.14-.5.23-.79.29-.29.05-.58.08-.87.08-.37,0-.75-.05-1.13-.16-.38-.11-.7-.29-.97-.57l1-1.11c.15.19.32.34.51.43.19.1.41.15.65.15.19,0,.36-.03.52-.08.15-.06.23-.16.23-.3s-.07-.24-.2-.31-.31-.13-.52-.18-.43-.1-.67-.15-.46-.14-.67-.25c-.21-.11-.38-.27-.52-.47-.14-.2-.2-.47-.2-.81,0-.32.06-.59.19-.81.13-.23.3-.41.51-.56s.45-.25.72-.32c.27-.07.55-.1.83-.1.35,0,.71.05,1.07.15s.66.29.91.55l-1.01,1Z"/><path class="h" d="M297.26,60.65h-1.09v-1.32h1.09v-.95c0-.29.03-.57.08-.83.05-.26.15-.49.3-.69.15-.2.36-.35.63-.47.28-.11.64-.17,1.08-.17.17,0,.33,0,.5.02.16.01.32.04.47.08l-.08,1.4c-.1-.04-.18-.06-.26-.08-.08-.02-.17-.03-.28-.03-.26,0-.46.06-.59.17-.13.11-.2.35-.2.7v.85h1.22v1.32h-1.22v4.03h-1.65v-4.03Z"/><path class="h" d="M305.82,63.75c-.26.34-.6.6-1,.78-.4.18-.82.27-1.25.27s-.8-.07-1.16-.2c-.36-.13-.68-.32-.95-.57-.27-.25-.48-.54-.63-.88s-.23-.73-.23-1.16.08-.81.23-1.16.36-.64.63-.89c.27-.25.58-.43.95-.57s.75-.2,1.16-.2c.38,0,.73.07,1.04.2s.58.32.79.57c.22.25.38.54.5.89.12.34.18.73.18,1.16v.52h-3.83c.07.32.21.57.43.75.22.19.49.28.81.28.27,0,.5-.06.69-.18.19-.12.35-.28.49-.47l1.16.85ZM304.42,61.39c0-.28-.08-.52-.27-.71-.19-.2-.44-.3-.74-.3-.18,0-.34.03-.48.09-.14.06-.26.13-.36.23-.1.09-.18.2-.23.32-.06.12-.09.25-.09.38h2.18Z"/><path class="h" d="M307.07,59.33h1.65v.86h.02c.18-.33.38-.58.63-.74s.55-.25.91-.25c.09,0,.19,0,.29.01.09,0,.18.02.26.04v1.51c-.12-.04-.23-.06-.35-.08-.11-.02-.23-.03-.36-.03-.32,0-.56.04-.75.13-.18.09-.32.21-.42.37-.1.16-.16.35-.19.57s-.04.46-.04.73v2.23h-1.65v-5.35Z"/><path class="h" d="M314.9,64h-.02c-.18.29-.43.49-.73.62-.3.12-.62.19-.96.19-.25,0-.49-.04-.72-.1-.23-.07-.43-.17-.61-.31-.18-.14-.32-.31-.42-.52-.1-.21-.15-.44-.15-.71,0-.31.06-.57.17-.78.11-.21.27-.39.46-.53.19-.14.42-.25.67-.32s.51-.13.78-.17c.27-.04.54-.06.8-.07.27,0,.52-.01.74-.01,0-.29-.1-.53-.31-.7-.21-.17-.46-.26-.74-.26-.27,0-.52.06-.74.17-.22.11-.42.27-.6.47l-.88-.9c.31-.29.67-.5,1.08-.64.41-.14.84-.21,1.28-.21.48,0,.88.06,1.19.18.31.12.56.3.75.53.19.23.32.52.39.86.07.34.11.74.11,1.18v2.72h-1.52v-.67ZM314.49,62.33c-.12,0-.28,0-.47.02-.19.01-.37.04-.54.09-.17.05-.32.13-.44.23s-.18.25-.18.43c0,.2.08.34.25.44.17.09.34.14.53.14.16,0,.32-.02.47-.07s.28-.11.4-.19c.12-.08.21-.18.28-.31.07-.12.1-.27.1-.44v-.35h-.41Z"/><path class="h" d="M320.48,60.9c-.24-.3-.56-.45-.96-.45-.14,0-.27.03-.41.1-.13.07-.2.18-.2.34,0,.13.07.23.2.29s.31.12.52.17.43.1.67.15c.24.06.46.14.67.26s.38.28.52.48c.14.2.2.47.2.81s-.08.63-.23.85-.34.4-.58.54c-.23.14-.5.23-.79.29-.29.05-.58.08-.87.08-.37,0-.75-.05-1.13-.16-.38-.11-.7-.29-.97-.57l1-1.11c.15.19.32.34.51.43.19.1.41.15.65.15.19,0,.36-.03.52-.08.15-.06.23-.16.23-.3s-.07-.24-.2-.31-.31-.13-.52-.18-.43-.1-.67-.15-.46-.14-.67-.25c-.21-.11-.38-.27-.52-.47-.14-.2-.2-.47-.2-.81,0-.32.06-.59.19-.81.13-.23.3-.41.51-.56s.45-.25.72-.32c.27-.07.55-.1.83-.1.35,0,.71.05,1.07.15s.66.29.91.55l-1.01,1Z"/><path class="h" d="M327.61,63.75c-.26.34-.6.6-1,.78-.4.18-.82.27-1.25.27s-.8-.07-1.16-.2c-.36-.13-.68-.32-.95-.57-.27-.25-.48-.54-.63-.88-.15-.34-.23-.73-.23-1.16s.08-.81.23-1.16c.15-.34.37-.64.63-.89.27-.25.58-.43.95-.57.36-.13.75-.2,1.16-.2.38,0,.73.07,1.04.2.31.13.58.32.79.57.22.25.38.54.5.89s.18.73.18,1.16v.52h-3.83c.07.32.21.57.43.75.22.19.49.28.81.28.27,0,.5-.06.69-.18.19-.12.35-.28.49-.47l1.16.85ZM326.21,61.39c0-.28-.08-.52-.28-.71s-.44-.3-.74-.3c-.18,0-.34.03-.48.09-.14.06-.26.13-.36.23-.1.09-.18.2-.23.32s-.09.25-.09.38h2.18Z"/><rect class="i" x="61.32" y="180.25" width="17.09" height="17.09"/><rect class="b" x="61.55" y="184.76" width="15.93" height="12.24"/><path class="j" d="M70.79,192.36h-1.51v-4.81s.04-.74.04-.74c-.25.25-.42.42-.52.49l-.82.66-.73-.91,2.3-1.83h1.24v7.14Z"/><rect class="h" x="179.48" y="180.25" width="17.09" height="17.09"/><rect class="b" x="179.71" y="184.76" width="15.93" height="12.24"/><path class="j" d="M190.21,192.36h-4.99v-1.05l1.79-1.81c.53-.54.88-.92,1.04-1.13.16-.21.28-.4.35-.58.07-.18.11-.36.11-.56,0-.29-.08-.5-.24-.64-.16-.14-.37-.21-.63-.21-.28,0-.55.06-.81.19-.26.13-.53.31-.82.54l-.82-.97c.35-.3.64-.51.87-.63.23-.12.48-.22.76-.29.27-.07.58-.1.92-.1.45,0,.84.08,1.18.24s.61.39.8.68c.19.29.28.63.28,1.01,0,.33-.06.64-.17.92-.12.29-.29.58-.54.89-.24.3-.67.73-1.28,1.29l-.92.86v.07h3.11v1.27Z"/><rect class="k" x="319.75" y="180.25" width="17.09" height="17.09"/><rect class="b" x="319.99" y="184.76" width="15.93" height="12.24"/><path class="j" d="M330.21,186.81c0,.45-.13.83-.41,1.14-.27.31-.65.53-1.14.64v.03c.58.07,1.01.25,1.31.53.3.28.44.65.44,1.12,0,.69-.25,1.22-.75,1.6-.5.38-1.21.57-2.13.57-.77,0-1.46-.13-2.06-.39v-1.28c.28.14.58.25.91.34s.66.13.99.13c.5,0,.87-.08,1.1-.25.24-.17.36-.44.36-.82,0-.33-.14-.57-.41-.71s-.71-.21-1.31-.21h-.54v-1.16h.55c.55,0,.96-.07,1.21-.22.25-.15.38-.39.38-.75,0-.54-.34-.81-1.02-.81-.23,0-.47.04-.71.12-.24.08-.51.21-.81.41l-.7-1.04c.65-.47,1.43-.7,2.33-.7.74,0,1.32.15,1.75.45.43.3.64.72.64,1.25Z"/><path class="f" d="M86.32,179.02h1.57l2.48,5.9h.04l2.45-5.9h1.57v7.79h-1.06v-6.4h-.02l-2.63,6.4h-.7l-2.63-6.4h-.02v6.4h-1.06v-7.79Z"/><path class="f" d="M96.86,184.56c0,.23.05.43.15.62.1.19.23.35.39.48.16.13.35.23.56.31.21.07.43.11.66.11.31,0,.58-.07.8-.21.23-.14.44-.33.63-.57l.75.57c-.55.71-1.32,1.07-2.31,1.07-.41,0-.78-.07-1.12-.21-.33-.14-.62-.33-.85-.58-.23-.25-.41-.54-.53-.87-.12-.33-.19-.69-.19-1.08s.07-.75.2-1.08.32-.62.56-.87c.24-.25.52-.44.85-.58.33-.14.69-.21,1.08-.21.46,0,.85.08,1.17.24.32.16.58.37.79.63.21.26.35.55.45.88.09.33.14.66.14,1v.35h-4.18ZM99.98,183.77c0-.22-.04-.42-.1-.6-.06-.18-.16-.34-.28-.48-.12-.14-.28-.24-.47-.32-.19-.08-.41-.12-.65-.12s-.46.05-.67.14c-.2.09-.37.21-.51.36-.14.15-.25.31-.33.49-.08.18-.12.36-.12.53h3.12Z"/><path class="f" d="M105.02,182.45h-1.42v2.37c0,.15,0,.29.01.43,0,.14.04.27.08.38.05.11.12.21.22.28.1.07.24.1.43.1.12,0,.24-.01.36-.03.12-.02.24-.06.34-.12v.9c-.12.07-.27.11-.46.14-.19.03-.33.04-.43.04-.38,0-.68-.05-.89-.16s-.36-.24-.46-.41c-.1-.17-.16-.36-.18-.57-.02-.21-.03-.42-.03-.63v-2.72h-1.14v-.86h1.14v-1.46h.99v1.46h1.42v.86Z"/><path class="f" d="M106.3,178.49h.99v3.91h.02c.12-.28.34-.5.65-.68.31-.17.66-.26,1.07-.26.25,0,.49.04.72.12s.43.2.6.36c.17.16.31.37.41.62.1.25.15.55.15.9v3.36h-.99v-3.08c0-.24-.03-.45-.1-.62-.07-.17-.15-.31-.26-.42s-.24-.18-.38-.23c-.14-.05-.29-.07-.45-.07-.21,0-.4.03-.57.1-.18.07-.33.17-.46.31-.13.14-.23.33-.31.54s-.11.48-.11.78v2.68h-.99v-8.32Z"/><path class="f" d="M111.8,181.59h1.14l1.54,4.07h.02l1.48-4.07h1.06l-2.48,6.34c-.09.23-.18.43-.27.62-.09.19-.21.35-.34.48-.13.13-.29.24-.48.31s-.41.11-.68.11c-.15,0-.29,0-.44-.03s-.29-.06-.43-.12l.12-.9c.2.08.39.12.59.12.15,0,.28-.02.39-.06.11-.04.2-.1.27-.18.08-.08.14-.17.19-.27s.1-.22.15-.35l.32-.83-2.16-5.25Z"/><path class="f" d="M117.99,178.49h.99v8.32h-.99v-8.32Z"/><path class="f" d="M120.57,182.23c.28-.26.6-.45.97-.58.37-.13.73-.19,1.1-.19s.71.05.98.14c.28.1.5.22.68.38.18.16.31.35.39.56.08.21.13.43.13.65v2.66c0,.18,0,.35.01.51,0,.15.02.3.03.44h-.88c-.02-.26-.03-.53-.03-.79h-.02c-.22.34-.48.58-.78.71-.3.14-.65.21-1.04.21-.24,0-.47-.03-.69-.1-.22-.07-.41-.17-.58-.3-.17-.13-.29-.3-.39-.49-.1-.19-.14-.42-.14-.68,0-.34.08-.62.23-.85.15-.23.36-.41.62-.55.26-.14.56-.25.91-.31s.72-.09,1.12-.09h.73v-.22c0-.13-.03-.26-.08-.4-.05-.13-.13-.25-.23-.36-.1-.11-.23-.19-.39-.25-.15-.06-.34-.09-.55-.09-.19,0-.36.02-.5.05-.14.04-.27.08-.39.14s-.22.12-.32.19-.19.14-.28.21l-.59-.62ZM123.37,184.3c-.23,0-.47.01-.72.04-.25.03-.47.08-.67.15-.2.07-.37.18-.49.31-.13.13-.19.3-.19.51,0,.3.1.52.3.65.2.13.47.2.82.2.27,0,.5-.05.69-.14.19-.09.34-.21.46-.36.12-.15.2-.31.25-.49s.08-.36.08-.53v-.33h-.53Z"/><path class="f" d="M129.06,182.45h-1.42v2.37c0,.15,0,.29.01.43,0,.14.04.27.08.38.05.11.12.21.22.28.1.07.24.1.43.1.12,0,.24-.01.36-.03.12-.02.24-.06.34-.12v.9c-.12.07-.27.11-.46.14-.19.03-.33.04-.43.04-.38,0-.68-.05-.89-.16s-.36-.24-.46-.41c-.1-.17-.16-.36-.18-.57s-.03-.42-.03-.63v-2.72h-1.14v-.86h1.14v-1.46h.99v1.46h1.42v.86Z"/><path class="f" d="M130.18,179.72c0-.2.07-.37.21-.51.14-.14.31-.21.51-.21s.37.07.51.21c.14.14.21.31.21.51s-.07.37-.21.51c-.14.14-.31.21-.51.21s-.37-.07-.51-.21c-.14-.14-.21-.31-.21-.51ZM130.41,181.59h.99v5.21h-.99v-5.21Z"/><path class="f" d="M132.72,184.2c0-.38.07-.74.21-1.07.14-.33.34-.62.59-.87s.54-.45.88-.59c.34-.14.7-.21,1.09-.21s.75.07,1.09.21c.34.14.63.34.88.59.25.25.45.54.59.87s.21.69.21,1.07-.07.74-.21,1.07c-.14.33-.34.62-.59.87-.25.25-.54.44-.88.58-.34.14-.7.21-1.09.21s-.75-.07-1.09-.21c-.34-.14-.63-.34-.88-.58-.25-.25-.45-.54-.59-.87-.14-.33-.21-.69-.21-1.07ZM133.77,184.2c0,.26.04.51.12.73.08.22.19.42.34.57.15.16.33.28.54.37s.45.14.71.14.5-.05.71-.14.39-.22.54-.37c.15-.16.26-.35.34-.57.08-.22.12-.47.12-.73s-.04-.51-.12-.73c-.08-.22-.19-.41-.34-.57-.15-.16-.33-.28-.54-.37s-.45-.14-.71-.14-.5.05-.71.14-.39.22-.54.37c-.15.16-.26.35-.34.57-.08.22-.12.47-.12.73Z"/><path class="f" d="M139.51,181.59h.99v.8h.02c.12-.28.34-.5.65-.68.31-.17.66-.26,1.07-.26.25,0,.49.04.72.12s.43.2.6.36c.17.16.31.37.41.62.1.25.15.55.15.9v3.36h-.99v-3.08c0-.24-.03-.45-.1-.62-.07-.17-.15-.31-.26-.42s-.24-.18-.38-.23c-.14-.05-.29-.07-.45-.07-.21,0-.4.03-.57.1-.18.07-.33.17-.46.31-.13.14-.23.33-.31.54s-.11.48-.11.78v2.68h-.99v-5.21Z"/><path class="f" d="M86.14,193.09h.99v.75h.02c.19-.28.45-.5.79-.65.33-.15.68-.23,1.03-.23.4,0,.77.07,1.09.21.33.14.6.33.84.58.23.25.41.54.53.87.12.33.19.69.19,1.07s-.06.75-.19,1.08-.3.62-.53.87c-.23.25-.51.44-.84.58-.33.14-.69.21-1.09.21-.37,0-.73-.08-1.06-.24s-.58-.37-.76-.64h-.02v3.85h-.99v-8.32ZM88.85,193.88c-.26,0-.5.05-.71.14s-.39.22-.54.37c-.15.16-.26.35-.34.57-.08.22-.12.47-.12.73s.04.51.12.73c.08.22.19.42.34.57.15.16.33.28.54.37s.45.14.71.14.5-.05.71-.14.39-.22.54-.37c.15-.16.26-.35.34-.57.08-.22.12-.47.12-.73s-.04-.51-.12-.73c-.08-.22-.19-.41-.34-.57-.15-.16-.33-.28-.54-.37s-.45-.14-.71-.14Z"/><path class="f" d="M92.89,193.73c.28-.26.6-.45.97-.58.37-.13.73-.19,1.1-.19s.71.05.98.14c.28.1.5.22.68.38.18.16.31.35.39.56s.13.43.13.65v2.66c0,.18,0,.35.01.51,0,.15.02.3.03.44h-.88c-.02-.26-.03-.53-.03-.79h-.02c-.22.34-.48.58-.78.71-.3.14-.65.21-1.05.21-.24,0-.47-.03-.69-.1-.22-.07-.41-.17-.58-.3-.17-.13-.29-.3-.39-.49-.1-.19-.14-.42-.14-.68,0-.34.08-.62.23-.85.15-.23.36-.41.62-.55.26-.14.56-.25.91-.31.35-.06.72-.09,1.12-.09h.73v-.22c0-.13-.03-.26-.08-.4-.05-.13-.13-.25-.23-.36-.1-.11-.23-.19-.38-.25-.15-.06-.34-.09-.55-.09-.19,0-.36.02-.5.05-.14.04-.27.08-.39.14s-.22.12-.32.19c-.1.07-.19.14-.28.21l-.59-.62ZM95.68,195.8c-.24,0-.48.01-.72.04-.25.03-.47.08-.67.15-.2.07-.37.18-.5.31s-.19.3-.19.51c0,.3.1.52.3.65.2.13.47.2.82.2.27,0,.5-.05.69-.14.19-.09.34-.21.46-.36.12-.15.2-.31.25-.49.05-.18.08-.36.08-.53v-.33h-.53Z"/><path class="f" d="M101.37,193.95h-1.42v2.37c0,.15,0,.29.01.43,0,.14.04.27.08.38.05.11.12.21.22.28.1.07.24.1.43.1.12,0,.24-.01.36-.03.12-.02.24-.06.34-.12v.9c-.12.07-.27.11-.46.14-.19.03-.33.04-.43.04-.38,0-.68-.05-.89-.16s-.36-.24-.46-.41c-.1-.17-.16-.36-.18-.57-.02-.21-.03-.42-.03-.63v-2.72h-1.14v-.86h1.14v-1.46h.99v1.46h1.42v.86Z"/><path class="f" d="M105.44,193.95h-1.42v2.37c0,.15,0,.29.01.43,0,.14.04.27.08.38.05.11.12.21.22.28.1.07.24.1.43.1.12,0,.24-.01.36-.03.12-.02.24-.06.34-.12v.9c-.12.07-.27.11-.46.14-.19.03-.33.04-.43.04-.38,0-.68-.05-.89-.16s-.36-.24-.46-.41c-.1-.17-.16-.36-.18-.57s-.03-.42-.03-.63v-2.72h-1.14v-.86h1.14v-1.46h.99v1.46h1.42v.86Z"/><path class="f" d="M107.46,196.06c0,.23.05.43.15.62.1.19.23.35.39.48.16.13.35.23.56.31.21.07.43.11.66.11.31,0,.58-.07.8-.21.23-.14.44-.33.63-.57l.75.57c-.55.71-1.32,1.07-2.31,1.07-.41,0-.78-.07-1.12-.21-.33-.14-.62-.33-.85-.58-.23-.25-.41-.54-.53-.87-.12-.33-.19-.69-.19-1.08s.07-.75.2-1.08.32-.62.56-.87c.24-.25.52-.44.85-.58.33-.14.69-.21,1.08-.21.46,0,.85.08,1.17.24.32.16.58.37.79.63.21.26.35.55.45.88.09.33.14.66.14,1v.35h-4.18ZM110.59,195.27c0-.22-.04-.42-.1-.6-.06-.18-.16-.34-.28-.48-.12-.14-.28-.24-.47-.32-.19-.08-.41-.12-.65-.12s-.46.05-.67.14c-.2.09-.37.21-.51.36-.14.15-.25.31-.33.49-.08.18-.12.36-.12.53h3.12Z"/><path class="f" d="M112.83,193.09h.99v.8h.02c.07-.14.15-.27.26-.38.11-.11.23-.21.37-.29s.28-.14.45-.19.32-.07.48-.07.31.02.44.07l-.04,1.07c-.08-.02-.16-.04-.24-.05-.08-.01-.16-.02-.24-.02-.48,0-.85.14-1.11.41s-.38.69-.38,1.26v2.62h-.99v-5.21Z"/><path class="f" d="M116.9,193.09h.99v.8h.02c.12-.28.34-.5.65-.68.31-.17.66-.26,1.07-.26.25,0,.49.04.72.12s.43.2.6.36c.17.16.31.37.41.62.1.25.15.55.15.9v3.36h-.99v-3.08c0-.24-.03-.45-.1-.62-.07-.17-.15-.31-.26-.42s-.24-.18-.38-.23c-.14-.05-.29-.07-.45-.07-.21,0-.4.03-.57.1-.18.07-.33.17-.46.31-.13.14-.23.33-.31.54s-.11.48-.11.78v2.68h-.99v-5.21Z"/><path class="f" d="M125.79,194.4c-.12-.15-.26-.27-.43-.37-.17-.1-.38-.15-.63-.15-.24,0-.44.05-.61.15-.17.1-.26.24-.26.43,0,.15.05.28.15.37.1.1.22.17.35.23.14.06.28.1.43.13.15.03.29.05.4.08.21.05.41.11.6.19.19.07.35.17.48.29s.24.26.32.43.12.37.12.62c0,.29-.06.54-.19.75-.12.21-.29.38-.48.51s-.42.23-.68.29-.51.09-.76.09c-.43,0-.81-.07-1.14-.2-.33-.13-.62-.37-.88-.73l.75-.62c.16.16.34.3.54.43.2.12.44.19.73.19.12,0,.25-.01.38-.04.13-.03.24-.07.34-.12.1-.06.18-.12.24-.21.06-.08.09-.18.09-.29,0-.15-.05-.27-.14-.36-.09-.09-.2-.17-.33-.22-.13-.06-.26-.1-.41-.13-.14-.03-.27-.06-.38-.08-.21-.05-.42-.11-.61-.18-.19-.07-.36-.15-.51-.26-.15-.11-.26-.25-.35-.42-.09-.17-.13-.38-.13-.63,0-.27.06-.51.17-.71.11-.2.26-.37.45-.5.19-.13.4-.23.64-.3s.48-.1.72-.1c.35,0,.69.07,1.01.2.32.13.58.35.77.66l-.77.58Z"/><path class="f" d="M207.77,187c-.59,0-1.14-.1-1.64-.31-.5-.21-.93-.5-1.28-.86-.36-.37-.63-.8-.84-1.3-.2-.5-.3-1.04-.3-1.62s.1-1.12.3-1.62c.2-.5.48-.93.84-1.3.36-.37.78-.66,1.28-.86.5-.21,1.04-.31,1.64-.31s1.14.1,1.64.31c.5.21.93.5,1.28.86.36.37.63.8.84,1.3.2.5.3,1.04.3,1.62s-.1,1.12-.3,1.62c-.2.5-.48.93-.84,1.3-.36.37-.78.65-1.28.86-.5.21-1.04.31-1.64.31ZM207.77,186.01c.45,0,.85-.08,1.21-.25.36-.17.67-.39.92-.67.26-.28.45-.61.59-.98.14-.38.21-.78.21-1.2s-.07-.83-.21-1.21c-.14-.38-.34-.71-.59-.98-.26-.28-.57-.5-.92-.67-.36-.17-.76-.25-1.21-.25s-.85.08-1.21.25c-.36.16-.67.39-.92.67s-.45.61-.59.98-.21.78-.21,1.21.07.83.21,1.2.34.71.59.98c.26.28.57.5.92.67.36.17.76.25,1.21.25Z"/><path class="f" d="M213.1,181.59h.99v.75h.02c.19-.28.45-.5.79-.65.33-.15.68-.23,1.03-.23.4,0,.77.07,1.09.21.33.14.6.33.84.58.23.25.41.54.53.87.12.33.19.69.19,1.07s-.06.75-.19,1.08-.3.62-.53.87c-.23.25-.51.44-.84.58-.33.14-.69.21-1.09.21-.37,0-.73-.08-1.06-.24s-.58-.37-.76-.64h-.02v3.85h-.99v-8.32ZM215.8,182.38c-.26,0-.5.05-.72.14-.21.09-.39.22-.54.37-.15.16-.26.35-.34.57-.08.22-.12.47-.12.73s.04.51.12.73c.08.22.19.42.34.57.15.16.33.28.54.37.21.09.45.14.72.14s.5-.05.71-.14.39-.22.54-.37c.15-.16.26-.35.34-.57.08-.22.12-.47.12-.73s-.04-.51-.12-.73c-.08-.22-.19-.41-.34-.57-.15-.16-.33-.28-.54-.37s-.45-.14-.71-.14Z"/><path class="f" d="M220.57,184.56c0,.23.05.43.15.62.1.19.23.35.39.48.16.13.35.23.56.31s.43.11.66.11c.31,0,.58-.07.8-.21.23-.14.44-.33.63-.57l.75.57c-.55.71-1.32,1.07-2.31,1.07-.41,0-.78-.07-1.12-.21-.33-.14-.62-.33-.85-.58-.23-.25-.41-.54-.53-.87s-.19-.69-.19-1.08.07-.75.2-1.08.32-.62.56-.87c.24-.25.52-.44.85-.58.33-.14.69-.21,1.08-.21.46,0,.85.08,1.17.24.32.16.58.37.79.63.21.26.35.55.45.88.09.33.14.66.14,1v.35h-4.18ZM223.69,183.77c0-.22-.04-.42-.1-.6-.06-.18-.16-.34-.28-.48-.12-.14-.28-.24-.47-.32s-.41-.12-.65-.12-.46.05-.67.14c-.2.09-.37.21-.51.36-.14.15-.25.31-.32.49-.08.18-.12.36-.12.53h3.12Z"/><path class="f" d="M225.93,181.59h.99v.8h.02c.12-.28.34-.5.65-.68.31-.17.66-.26,1.07-.26.25,0,.49.04.72.12.23.08.43.2.61.36.17.16.31.37.41.62.1.25.15.55.15.9v3.36h-.99v-3.08c0-.24-.03-.45-.1-.62-.07-.17-.15-.31-.26-.42-.11-.11-.24-.18-.38-.23s-.29-.07-.45-.07c-.21,0-.4.03-.57.1-.18.07-.33.17-.46.31-.13.14-.23.33-.31.54-.07.22-.11.48-.11.78v2.68h-.99v-5.21Z"/><path class="f" d="M238.84,182.98c-.18-.19-.38-.33-.58-.43-.2-.1-.44-.15-.72-.15s-.51.05-.71.15c-.2.1-.37.24-.51.41s-.24.37-.31.59c-.07.22-.1.46-.1.7s.04.47.12.69c.08.22.19.41.34.57.15.16.32.29.53.38.21.09.44.14.69.14.28,0,.52-.05.72-.15.2-.1.38-.24.55-.43l.71.7c-.26.29-.56.49-.9.62-.34.12-.7.19-1.08.19-.4,0-.77-.07-1.11-.2-.33-.13-.62-.32-.86-.55s-.43-.52-.56-.86-.2-.7-.2-1.11.07-.77.2-1.11c.13-.34.32-.63.56-.87.24-.24.52-.43.86-.57.33-.14.71-.2,1.12-.2.38,0,.75.07,1.09.2.35.14.65.34.91.62l-.75.68Z"/><path class="f" d="M240.41,178.49h.99v3.91h.02c.12-.28.34-.5.65-.68.31-.17.66-.26,1.07-.26.25,0,.49.04.72.12.23.08.43.2.6.36s.31.37.41.62c.1.25.15.55.15.9v3.36h-.99v-3.08c0-.24-.03-.45-.1-.62-.07-.17-.15-.31-.26-.42-.11-.11-.24-.18-.38-.23-.14-.05-.29-.07-.45-.07-.21,0-.4.03-.57.1-.18.07-.33.17-.46.31-.13.14-.23.33-.31.54s-.11.48-.11.78v2.68h-.99v-8.32Z"/><path class="f" d="M246.53,181.59h.99v.8h.02c.07-.14.15-.27.26-.38.11-.11.23-.21.37-.29.13-.08.28-.14.45-.19.16-.05.32-.07.48-.07s.31.02.44.07l-.04,1.07c-.08-.02-.16-.04-.24-.05s-.16-.02-.24-.02c-.48,0-.85.14-1.11.41-.26.27-.39.69-.39,1.26v2.62h-.99v-5.21Z"/><path class="f" d="M250.15,184.2c0-.38.07-.74.21-1.07s.34-.62.59-.87c.25-.25.54-.45.88-.59.34-.14.7-.21,1.09-.21s.75.07,1.09.21c.34.14.63.34.88.59.25.25.45.54.59.87.14.33.21.69.21,1.07s-.07.74-.21,1.07c-.14.33-.34.62-.59.87-.25.25-.54.44-.88.58-.34.14-.7.21-1.09.21s-.75-.07-1.09-.21c-.34-.14-.63-.34-.88-.58-.25-.25-.45-.54-.59-.87-.14-.33-.21-.69-.21-1.07ZM251.2,184.2c0,.26.04.51.12.73.08.22.2.42.34.57.15.16.33.28.54.37s.45.14.71.14.5-.05.71-.14.39-.22.54-.37c.15-.16.26-.35.34-.57.08-.22.12-.47.12-.73s-.04-.51-.12-.73c-.08-.22-.19-.41-.34-.57-.15-.16-.33-.28-.54-.37s-.45-.14-.71-.14-.5.05-.71.14-.39.22-.54.37c-.15.16-.26.35-.34.57-.08.22-.12.47-.12.73Z"/><path class="f" d="M256.93,181.59h.92v.81h.02c.02-.07.08-.17.17-.27.09-.11.21-.21.35-.31.14-.1.31-.18.51-.25.19-.07.41-.1.64-.1.39,0,.71.08.98.24.26.16.48.4.65.73.17-.32.41-.56.71-.73.31-.16.62-.24.93-.24.4,0,.73.07.99.2.26.13.46.31.61.52.15.22.25.46.3.74.05.28.08.56.08.85v3.04h-.99v-2.9c0-.2-.01-.39-.04-.57-.03-.18-.08-.34-.16-.48-.08-.14-.19-.25-.34-.34-.15-.08-.34-.13-.58-.13-.48,0-.82.15-1.02.44-.21.29-.31.67-.31,1.13v2.85h-.99v-2.73c0-.25-.01-.48-.04-.68s-.08-.38-.15-.53-.19-.27-.33-.35c-.14-.08-.34-.13-.58-.13-.18,0-.35.04-.51.1s-.31.17-.43.31-.22.32-.3.53c-.07.22-.11.47-.11.76v2.71h-.99v-5.21Z"/><path class="f" d="M266.33,182.23c.28-.26.6-.45.97-.58s.73-.19,1.1-.19.71.05.98.14c.28.1.5.22.68.38.18.16.31.35.39.56.08.21.13.43.13.65v2.66c0,.18,0,.35.01.51,0,.15.02.3.03.44h-.88c-.02-.26-.03-.53-.03-.79h-.02c-.22.34-.48.58-.78.71-.3.14-.65.21-1.05.21-.24,0-.47-.03-.69-.1-.22-.07-.41-.17-.58-.3-.17-.13-.29-.3-.39-.49-.1-.19-.14-.42-.14-.68,0-.34.07-.62.22-.85.15-.23.36-.41.62-.55.26-.14.56-.25.91-.31.35-.06.72-.09,1.12-.09h.72v-.22c0-.13-.03-.26-.08-.4-.05-.13-.13-.25-.23-.36-.1-.11-.23-.19-.39-.25-.15-.06-.34-.09-.55-.09-.19,0-.36.02-.5.05-.14.04-.27.08-.39.14s-.22.12-.32.19c-.1.07-.19.14-.28.21l-.59-.62ZM269.12,184.3c-.23,0-.47.01-.72.04-.25.03-.47.08-.67.15s-.37.18-.5.31c-.13.13-.19.3-.19.51,0,.3.1.52.3.65.2.13.47.2.82.2.27,0,.5-.05.69-.14.19-.09.34-.21.46-.36.12-.15.2-.31.25-.49.05-.18.08-.36.08-.53v-.33h-.53Z"/><path class="f" d="M274.81,182.45h-1.42v2.37c0,.15,0,.29.01.43,0,.14.04.27.08.38.05.11.12.21.22.28.1.07.24.1.43.1.12,0,.24-.01.36-.03.12-.02.24-.06.34-.12v.9c-.12.07-.27.11-.46.14-.19.03-.33.04-.43.04-.38,0-.68-.05-.89-.16s-.36-.24-.46-.41c-.1-.17-.16-.36-.18-.57s-.03-.42-.03-.63v-2.72h-1.14v-.86h1.14v-1.46h.99v1.46h1.42v.86Z"/><path class="f" d="M275.93,179.72c0-.2.07-.37.21-.51.14-.14.31-.21.51-.21s.37.07.51.21c.14.14.21.31.21.51s-.07.37-.21.51c-.14.14-.31.21-.51.21s-.37-.07-.51-.21c-.14-.14-.21-.31-.21-.51ZM276.16,181.59h.99v5.21h-.99v-5.21Z"/><path class="f" d="M278.72,181.59h.99v.8h.02c.12-.28.34-.5.65-.68.31-.17.66-.26,1.07-.26.25,0,.49.04.72.12.23.08.43.2.61.36s.31.37.41.62c.1.25.15.55.15.9v3.36h-.99v-3.08c0-.24-.03-.45-.1-.62-.07-.17-.15-.31-.26-.42s-.24-.18-.38-.23-.29-.07-.45-.07c-.21,0-.4.03-.57.1-.18.07-.33.17-.46.31-.13.14-.23.33-.31.54-.07.22-.11.48-.11.78v2.68h-.99v-5.21Z"/><path class="f" d="M203.94,193.09h.99v.8h.02c.07-.14.15-.27.26-.38.11-.11.23-.21.37-.29.14-.08.29-.14.45-.19.16-.05.32-.07.48-.07s.31.02.44.07l-.04,1.07c-.08-.02-.16-.04-.24-.05-.08-.01-.16-.02-.24-.02-.48,0-.85.14-1.11.41-.26.27-.38.69-.38,1.26v2.62h-.99v-5.21Z"/><path class="f" d="M208.57,196.06c0,.23.05.43.15.62.1.19.23.35.39.48.16.13.35.23.56.31s.43.11.66.11c.31,0,.58-.07.8-.21.23-.14.44-.33.63-.57l.75.57c-.55.71-1.32,1.07-2.31,1.07-.41,0-.78-.07-1.12-.21-.33-.14-.62-.33-.85-.58-.23-.25-.41-.54-.53-.87-.12-.33-.19-.69-.19-1.08s.07-.75.2-1.08c.14-.33.32-.62.56-.87.24-.25.52-.44.85-.58.33-.14.69-.21,1.08-.21.46,0,.85.08,1.17.24.32.16.58.37.79.63.21.26.35.55.45.88.09.33.14.66.14,1v.35h-4.18ZM211.69,195.27c0-.22-.04-.42-.1-.6-.06-.18-.16-.34-.28-.48s-.28-.24-.47-.32c-.19-.08-.41-.12-.66-.12s-.46.05-.67.14c-.2.09-.37.21-.51.36-.14.15-.25.31-.32.49-.08.18-.12.36-.12.53h3.12Z"/><path class="f" d="M219.16,198.26c0,.4-.07.76-.2,1.08-.13.33-.33.61-.58.85s-.55.42-.9.56c-.35.13-.74.2-1.17.2-.5,0-.96-.07-1.37-.21-.41-.14-.81-.38-1.18-.73l.67-.84c.26.28.54.49.84.63.3.14.64.21,1.02.21s.67-.05.91-.16.43-.24.58-.41c.14-.17.24-.36.3-.58.06-.22.09-.43.09-.65v-.77h-.03c-.19.32-.45.55-.78.7s-.67.23-1.03.23c-.38,0-.74-.07-1.06-.2s-.61-.32-.84-.56c-.24-.24-.42-.52-.55-.85-.13-.33-.2-.68-.2-1.06s.06-.74.19-1.07c.12-.33.3-.62.53-.87s.51-.44.84-.58c.33-.14.69-.21,1.09-.21.35,0,.7.08,1.03.23.33.15.6.37.79.65h.02v-.75h.99v5.17ZM216.45,193.88c-.26,0-.5.05-.71.14s-.39.22-.54.37c-.15.16-.26.35-.34.57-.08.22-.12.47-.12.73,0,.53.15.95.46,1.27.31.32.73.48,1.25.48s.95-.16,1.25-.48c.31-.32.46-.74.46-1.27,0-.26-.04-.51-.12-.73-.08-.22-.19-.41-.34-.57-.15-.16-.33-.28-.54-.37s-.45-.14-.71-.14Z"/><path class="f" d="M220.5,191.22c0-.2.07-.37.21-.51.14-.14.31-.21.51-.21s.37.07.51.21c.14.14.21.31.21.51s-.07.37-.21.51c-.14.14-.31.21-.51.21s-.37-.07-.51-.21c-.14-.14-.21-.31-.21-.51ZM220.73,193.09h.99v5.21h-.99v-5.21Z"/><path class="f" d="M223.04,195.7c0-.38.07-.74.21-1.07s.34-.62.59-.87c.25-.25.54-.45.88-.59.34-.14.7-.21,1.09-.21s.75.07,1.09.21c.34.14.63.34.88.59s.45.54.59.87.21.69.21,1.07-.07.74-.21,1.07c-.14.33-.34.62-.59.87-.25.25-.54.44-.88.58-.34.14-.7.21-1.09.21s-.75-.07-1.09-.21c-.34-.14-.63-.34-.88-.58-.25-.25-.45-.54-.59-.87-.14-.33-.21-.69-.21-1.07ZM224.1,195.7c0,.26.04.51.12.73.08.22.19.42.34.57.15.16.33.28.54.37.21.09.45.14.72.14s.5-.05.71-.14.39-.22.54-.37c.15-.16.26-.35.34-.57.08-.22.12-.47.12-.73s-.04-.51-.12-.73c-.08-.22-.19-.41-.34-.57-.15-.16-.33-.28-.54-.37s-.45-.14-.71-.14-.5.05-.72.14c-.21.09-.39.22-.54.37-.15.16-.26.35-.34.57-.08.22-.12.47-.12.73Z"/><path class="f" d="M229.83,193.09h.99v.8h.02c.12-.28.34-.5.65-.68.31-.17.66-.26,1.07-.26.25,0,.49.04.72.12.23.08.43.2.6.36s.31.37.41.62c.1.25.15.55.15.9v3.36h-.99v-3.08c0-.24-.03-.45-.1-.62-.07-.17-.15-.31-.26-.42-.11-.11-.24-.18-.38-.23-.14-.05-.29-.07-.45-.07-.21,0-.4.03-.57.1-.18.07-.33.17-.46.31-.13.14-.23.33-.31.54s-.11.48-.11.78v2.68h-.99v-5.21Z"/><path class="f" d="M238.72,194.4c-.12-.15-.26-.27-.43-.37s-.38-.15-.63-.15-.44.05-.61.15-.26.24-.26.43c0,.15.05.28.15.37.1.1.22.17.35.23.14.06.28.1.43.13s.29.05.4.08c.21.05.41.11.6.19.19.07.35.17.48.29s.24.26.32.43c.08.17.12.37.12.62,0,.29-.06.54-.19.75-.12.21-.29.38-.48.51-.2.13-.42.23-.68.29s-.51.09-.76.09c-.43,0-.81-.07-1.14-.2-.33-.13-.62-.37-.87-.73l.75-.62c.16.16.34.3.54.43.2.12.44.19.73.19.12,0,.25-.01.38-.04.13-.03.24-.07.34-.12.1-.06.18-.12.24-.21.06-.08.09-.18.09-.29,0-.15-.05-.27-.14-.36-.09-.09-.2-.17-.33-.22-.13-.06-.26-.1-.41-.13-.14-.03-.27-.06-.38-.08-.21-.05-.42-.11-.61-.18-.19-.07-.36-.15-.51-.26-.15-.11-.26-.25-.35-.42-.09-.17-.13-.38-.13-.63,0-.27.06-.51.17-.71.11-.2.26-.37.45-.5.19-.13.4-.23.64-.3s.48-.1.72-.1c.35,0,.69.07,1.01.2.32.13.58.35.77.66l-.77.58Z"/><path class="f" d="M345.82,179.02h1.06v6.8h3.57v.99h-4.63v-7.79Z"/><path class="f" d="M351.02,184.2c0-.38.07-.74.21-1.07.14-.33.34-.62.59-.87.25-.25.54-.45.88-.59.34-.14.7-.21,1.09-.21s.75.07,1.09.21c.34.14.63.34.88.59s.45.54.59.87c.14.33.21.69.21,1.07s-.07.74-.21,1.07c-.14.33-.34.62-.59.87-.25.25-.54.44-.88.58-.34.14-.7.21-1.09.21s-.75-.07-1.09-.21c-.34-.14-.63-.34-.88-.58-.25-.25-.45-.54-.59-.87-.14-.33-.21-.69-.21-1.07ZM352.07,184.2c0,.26.04.51.12.73.08.22.19.42.34.57.15.16.33.28.54.37.21.09.45.14.72.14s.5-.05.71-.14.39-.22.54-.37c.15-.16.26-.35.34-.57.08-.22.12-.47.12-.73s-.04-.51-.12-.73c-.08-.22-.19-.41-.34-.57-.15-.16-.33-.28-.54-.37s-.45-.14-.71-.14-.5.05-.72.14c-.21.09-.39.22-.54.37-.15.16-.26.35-.34.57-.08.22-.12.47-.12.73Z"/><path class="f" d="M357.81,181.59h.99v.8h.02c.12-.28.34-.5.65-.68.31-.17.66-.26,1.07-.26.25,0,.49.04.72.12s.43.2.6.36c.17.16.31.37.41.62.1.25.15.55.15.9v3.36h-.99v-3.08c0-.24-.03-.45-.1-.62-.07-.17-.15-.31-.26-.42s-.24-.18-.38-.23c-.14-.05-.29-.07-.45-.07-.21,0-.4.03-.57.1-.18.07-.33.17-.46.31-.13.14-.23.33-.31.54s-.11.48-.11.78v2.68h-.99v-5.21Z"/><path class="f" d="M369.15,186.76c0,.4-.07.76-.2,1.08s-.33.61-.58.85c-.25.24-.55.42-.9.56-.35.13-.74.2-1.17.2-.5,0-.96-.07-1.37-.21-.41-.14-.81-.38-1.18-.73l.67-.84c.26.28.54.49.84.63.3.14.64.21,1.02.21s.67-.05.91-.16.43-.24.58-.41c.14-.17.24-.36.3-.58.06-.22.09-.43.09-.65v-.77h-.03c-.19.32-.45.55-.78.7s-.67.23-1.03.23c-.38,0-.74-.07-1.06-.2s-.61-.32-.84-.56c-.24-.24-.42-.52-.55-.85-.13-.33-.2-.68-.2-1.06s.06-.74.19-1.07c.12-.33.3-.62.53-.87.23-.25.51-.44.84-.58.33-.14.69-.21,1.09-.21.35,0,.7.08,1.03.23.33.15.6.37.79.65h.02v-.75h.99v5.17ZM366.44,182.38c-.26,0-.5.05-.71.14s-.39.22-.54.37c-.15.16-.26.35-.34.57-.08.22-.12.47-.12.73,0,.53.15.95.46,1.27.31.32.73.48,1.25.48s.95-.16,1.25-.48c.31-.32.46-.74.46-1.27,0-.26-.04-.51-.12-.73-.08-.22-.19-.41-.34-.57-.15-.16-.33-.28-.54-.37s-.45-.14-.71-.14Z"/><path class="f" d="M372.99,184.61h-2.71v-.92h2.71v.92Z"/><path class="f" d="M374.12,181.59h.99v.8h.02c.07-.14.15-.27.26-.38.11-.11.23-.21.37-.29s.28-.14.45-.19.32-.07.48-.07.31.02.44.07l-.04,1.07c-.08-.02-.16-.04-.24-.05-.08-.01-.16-.02-.24-.02-.48,0-.85.14-1.11.41s-.38.69-.38,1.26v2.62h-.99v-5.21Z"/><path class="f" d="M378.74,184.56c0,.23.05.43.15.62.1.19.23.35.39.48.16.13.35.23.56.31.21.07.43.11.66.11.31,0,.58-.07.8-.21.23-.14.44-.33.63-.57l.75.57c-.55.71-1.32,1.07-2.31,1.07-.41,0-.78-.07-1.12-.21-.33-.14-.62-.33-.85-.58-.23-.25-.41-.54-.53-.87-.12-.33-.19-.69-.19-1.08s.07-.75.2-1.08.32-.62.56-.87c.24-.25.52-.44.85-.58.33-.14.69-.21,1.08-.21.46,0,.85.08,1.17.24.32.16.58.37.79.63.21.26.35.55.45.88.09.33.14.66.14,1v.35h-4.18ZM381.86,183.77c0-.22-.04-.42-.1-.6-.06-.18-.16-.34-.28-.48-.12-.14-.28-.24-.47-.32-.19-.08-.41-.12-.65-.12s-.46.05-.67.14c-.2.09-.37.21-.51.36-.14.15-.25.31-.33.49-.08.18-.12.36-.12.53h3.12Z"/><path class="f" d="M384.13,182.23c.28-.26.6-.45.97-.58.37-.13.73-.19,1.1-.19s.71.05.98.14c.28.1.5.22.68.38.18.16.31.35.39.56s.13.43.13.65v2.66c0,.18,0,.35.01.51,0,.15.02.3.03.44h-.88c-.02-.26-.03-.53-.03-.79h-.02c-.22.34-.48.58-.78.71-.3.14-.65.21-1.05.21-.24,0-.47-.03-.69-.1-.22-.07-.41-.17-.58-.3-.17-.13-.29-.3-.39-.49-.1-.19-.14-.42-.14-.68,0-.34.08-.62.23-.85.15-.23.36-.41.62-.55.26-.14.56-.25.91-.31.35-.06.72-.09,1.12-.09h.73v-.22c0-.13-.03-.26-.08-.4-.05-.13-.13-.25-.23-.36-.1-.11-.23-.19-.38-.25-.15-.06-.34-.09-.55-.09-.19,0-.36.02-.5.05-.14.04-.27.08-.39.14s-.22.12-.32.19c-.1.07-.19.14-.28.21l-.59-.62ZM386.92,184.3c-.24,0-.48.01-.72.04-.25.03-.47.08-.67.15-.2.07-.37.18-.5.31s-.19.3-.19.51c0,.3.1.52.3.65.2.13.47.2.82.2.27,0,.5-.05.69-.14.19-.09.34-.21.46-.36.12-.15.2-.31.25-.49.05-.18.08-.36.08-.53v-.33h-.53Z"/><path class="f" d="M395.04,186.81h-.99v-.75h-.02c-.19.28-.45.5-.79.65-.33.15-.68.23-1.03.23-.4,0-.77-.07-1.09-.21-.33-.14-.61-.33-.84-.58-.23-.25-.41-.54-.53-.87-.12-.33-.19-.69-.19-1.08s.06-.75.19-1.08c.12-.33.3-.62.53-.87.23-.25.51-.44.84-.58.33-.14.69-.21,1.09-.21.37,0,.73.08,1.06.24.33.16.58.37.76.64h.02v-3.85h.99v8.32ZM392.34,186.01c.26,0,.5-.05.71-.14s.39-.22.54-.37c.15-.16.26-.35.34-.57.08-.22.12-.47.12-.73s-.04-.51-.12-.73c-.08-.22-.19-.41-.34-.57-.15-.16-.33-.28-.54-.37s-.45-.14-.71-.14-.5.05-.72.14c-.21.09-.39.22-.54.37-.15.16-.26.35-.34.57-.08.22-.12.47-.12.73s.04.51.12.73c.08.22.19.42.34.57.15.16.33.28.54.37.21.09.45.14.72.14Z"/><path class="f" d="M345.64,190.52h2.72c.55,0,1.03.06,1.45.19.42.12.77.29,1.08.5.3.21.56.45.76.72.2.27.36.55.48.84.12.29.2.57.25.86.05.29.08.55.08.79,0,.5-.09.98-.27,1.45-.18.47-.46.88-.81,1.24-.36.36-.8.65-1.34.87-.53.22-1.15.33-1.84.33h-2.54v-7.79ZM346.7,197.32h1.33c.45,0,.87-.06,1.27-.18.4-.12.75-.3,1.05-.54s.54-.54.71-.91c.18-.36.26-.79.26-1.27,0-.25-.04-.54-.12-.88-.08-.33-.23-.65-.46-.95s-.53-.56-.93-.76c-.4-.21-.91-.31-1.54-.31h-1.58v5.81Z"/><path class="f" d="M353.97,190.52h1.39l4.29,6.4h.02v-6.4h1.06v7.79h-1.34l-4.33-6.4h-.02v6.4h-1.06v-7.79Z"/><path class="f" d="M365.16,190.52h.96l3.33,7.79h-1.23l-.78-1.92h-3.71l-.77,1.92h-1.23l3.43-7.79ZM367.06,195.46l-1.45-3.58h-.02l-1.47,3.58h2.95Z"/><path class="f" d="M30.01,11.19h7.6v2.3h-5.1v2.3h4.72v2.3h-4.72v4.42h-2.5v-11.33Z"/><path class="f" d="M38.94,12.29c0-.38.14-.71.41-.98.27-.27.6-.41.98-.41s.71.14.98.41c.27.27.41.6.41.98s-.14.71-.41.98c-.27.27-.6.41-.98.41s-.71-.14-.98-.41c-.27-.27-.41-.6-.41-.98ZM39.13,14.74h2.4v7.78h-2.4v-7.78Z"/><path class="f" d="M43.48,10.42h2.4v5.15h.03c.28-.37.63-.64,1.06-.79.43-.15.9-.23,1.4-.23.55,0,1.05.11,1.49.34.44.23.81.54,1.11.92.3.38.54.82.7,1.32.17.5.25,1.02.25,1.56,0,.59-.09,1.13-.27,1.62-.18.49-.44.91-.78,1.27s-.74.63-1.21.83-.99.3-1.57.3c-.28,0-.54-.04-.78-.11-.25-.07-.47-.17-.68-.29-.21-.12-.39-.25-.54-.39s-.28-.29-.38-.42h-.03v1.02h-2.21v-12.1ZM45.69,18.63c0,.59.17,1.06.5,1.42s.81.54,1.42.54,1.08-.18,1.42-.54c.34-.36.5-.84.5-1.42s-.17-1.06-.5-1.42c-.34-.36-.81-.54-1.42-.54s-1.08.18-1.42.54c-.34.36-.5.84-.5,1.42Z"/><path class="f" d="M60.7,21.17c-.38.49-.87.87-1.46,1.14-.59.27-1.2.4-1.82.4s-1.16-.1-1.69-.29c-.53-.19-.99-.47-1.38-.82-.39-.36-.7-.79-.92-1.29-.22-.5-.34-1.06-.34-1.68s.11-1.18.34-1.68c.22-.5.53-.93.92-1.29.39-.36.85-.63,1.38-.82.53-.19,1.09-.29,1.69-.29.55,0,1.06.1,1.51.29.45.19.84.47,1.15.82s.56.79.73,1.29c.17.5.26,1.06.26,1.68v.75h-5.57c.1.46.3.82.62,1.1s.71.41,1.18.41c.39,0,.73-.09,1-.26.27-.18.51-.4.71-.68l1.68,1.23ZM58.67,17.75c.01-.41-.12-.75-.4-1.04s-.63-.43-1.07-.43c-.27,0-.5.04-.7.13-.2.09-.38.19-.52.33-.14.13-.26.29-.34.46-.08.18-.12.36-.14.55h3.17Z"/><path class="f" d="M62.52,14.74h2.4v1.25h.03c.26-.48.56-.84.91-1.08.35-.24.79-.36,1.33-.36.14,0,.28,0,.42.02.14.01.27.03.38.06v2.19c-.17-.05-.34-.09-.5-.12-.17-.03-.34-.04-.52-.04-.46,0-.82.06-1.09.19s-.47.31-.62.54-.24.5-.28.82c-.04.32-.06.67-.06,1.06v3.25h-2.4v-7.78Z"/><path class="f" d="M71.64,19.49h-3.94v-1.92h3.94v1.92Z"/><path class="f" d="M77.29,17.03c-.35-.44-.82-.66-1.39-.66-.2,0-.4.05-.59.14-.19.1-.29.26-.29.5,0,.19.1.33.3.42.2.09.45.17.75.24s.63.14.98.22c.35.08.67.21.98.38.3.17.55.4.75.7.2.29.3.69.3,1.18s-.11.92-.33,1.24-.5.59-.84.78c-.34.2-.73.34-1.15.42-.43.08-.85.12-1.26.12-.54,0-1.09-.08-1.65-.23s-1.02-.43-1.41-.82l1.46-1.62c.22.28.47.49.74.63.27.14.59.22.95.22.28,0,.53-.04.75-.12.22-.08.34-.23.34-.44s-.1-.35-.3-.46c-.2-.1-.45-.19-.75-.26s-.63-.14-.98-.22c-.35-.08-.67-.2-.98-.36-.3-.16-.55-.39-.75-.68s-.3-.69-.3-1.18c0-.46.09-.85.28-1.18s.43-.6.74-.82c.3-.21.65-.37,1.05-.47.39-.1.79-.15,1.2-.15.51,0,1.03.07,1.55.22.52.15.96.42,1.33.8l-1.47,1.46Z"/><path class="f" d="M87.66,21.17c-.38.49-.87.87-1.46,1.14-.59.27-1.2.4-1.82.4s-1.16-.1-1.69-.29c-.53-.19-.99-.47-1.38-.82-.39-.36-.7-.79-.92-1.29-.22-.5-.34-1.06-.34-1.68s.11-1.18.34-1.68c.22-.5.53-.93.92-1.29.39-.36.85-.63,1.38-.82.53-.19,1.09-.29,1.69-.29.55,0,1.06.1,1.51.29.45.19.84.47,1.15.82s.56.79.73,1.29c.17.5.26,1.06.26,1.68v.75h-5.57c.1.46.3.82.62,1.1s.71.41,1.18.41c.39,0,.73-.09,1-.26.27-.18.51-.4.71-.68l1.68,1.23ZM85.63,17.75c.01-.41-.12-.75-.4-1.04s-.63-.43-1.07-.43c-.27,0-.5.04-.7.13-.2.09-.38.19-.52.33-.14.13-.26.29-.34.46-.08.18-.12.36-.14.55h3.17Z"/><path class="f" d="M97.64,26.16h-2.4v-4.48h-.03c-.28.37-.63.64-1.06.79s-.9.23-1.4.23c-.55,0-1.05-.11-1.49-.34-.44-.23-.81-.54-1.11-.92-.3-.38-.54-.82-.7-1.32s-.25-1.02-.25-1.56c0-.59.09-1.12.27-1.62.18-.49.44-.91.78-1.27s.74-.63,1.21-.83c.47-.2.99-.3,1.57-.3.27,0,.53.04.78.11.25.07.48.17.69.29s.39.25.54.39c.15.14.28.29.38.42h.03v-1.02h2.21v11.42ZM95.43,18.63c0-.59-.17-1.06-.5-1.42-.34-.36-.81-.54-1.42-.54s-1.08.18-1.42.54c-.34.36-.5.84-.5,1.42s.17,1.06.5,1.42.81.54,1.42.54,1.08-.18,1.42-.54.5-.84.5-1.42Z"/></svg>